<svg version="1.2" xmlns="http://www.w3.org/2000/svg" viewBox="0 0 300 150" width="300" height="150">
	<title>Novo Projeto</title>
	<style>
		.s0 { fill: #2f09f1 } 
		.s1 { fill: #ff0000 } 
		.s2 { fill: #c24504 } 
	</style>
	<path id="Text layer 1" class="s0" aria-label="Conect@ar
Sistema de informação
"  d="m41.6 76h-15.8q-8.2 0-12.1-3.3-3.9-3.2-3.9-10v-20.2q0-6.7 3.9-10 3.9-3.3 12.1-3.3h15.8q1.3 0 1.8 0.6 0.6 0.5 0.6 1.7v7.9q0 1.2-0.6 1.8-0.5 0.5-1.8 0.5h-13q-2.1 0-3 0.9-1 0.8-1 2.4v15.5q0 1.6 1 2.4 0.9 0.7 3 0.7h13q1.3 0 1.8 0.6 0.6 0.5 0.6 1.7v7.8q0 1.2-0.6 1.8-0.5 0.5-1.8 0.5zm-3.6-5.8v-0.7h-10.8q-5.9 0-7.8-1.8-2-1.7-2-5.9v-18.2q0-4.3 2.1-6.1 2-1.8 7.7-1.8h10.8v-0.7h-10.8q-6.2 0-8.3 2-2.1 1.9-2.1 6.6v18.2q0 4.4 2 6.4 2.1 2 8.4 2zm37.6-17v14.7q0 2-0.6 3.6-0.5 1.6-2 2.7-1.5 1.2-4.1 1.8-2.6 0.6-6.6 0.6-4 0-6.6-0.6-2.6-0.6-4.1-1.8-1.5-1.1-2.1-2.7-0.6-1.6-0.6-3.6v-14.7q0-2 0.6-3.6 0.6-1.6 2.1-2.8 1.5-1.1 4.1-1.8 2.6-0.6 6.6-0.6 4 0 6.6 0.6 2.6 0.7 4.1 1.8 1.5 1.2 2 2.8 0.6 1.6 0.6 3.6zm-4.6 13.7v-12.7q0-2.6-1.9-4.2-1.8-1.6-6.9-1.6-5 0-6.8 1.6-1.8 1.6-1.8 4.2v12.7q0 2.6 1.8 4.2 1.8 1.6 6.8 1.6 5.1 0 6.9-1.6 1.9-1.6 1.9-4.2zm-17 0v-12.7q0-2.4 1.7-3.9 1.7-1.5 6.5-1.5 4.8 0 6.6 1.5 1.7 1.5 1.7 3.9v12.7q0 2.4-1.7 3.9-1.8 1.5-6.6 1.5-4.8 0-6.5-1.5-1.7-1.5-1.7-3.9zm4.7-12.1v11.5q0 0.9 0.6 1.5 0.7 0.5 3 0.5 2.3 0 3-0.5 0.6-0.6 0.6-1.5v-11.5q0-0.9-0.6-1.4-0.7-0.6-3-0.6-2.3 0-3 0.6-0.6 0.5-0.6 1.4zm43.9 12.3l-15.8-17.8q-0.2-0.3-0.4-0.3-0.1-0.1-0.3-0.1-0.1 0-0.3 0.1-0.2 0.1-0.2 0.4v22.7h0.4v-22.6q0-0.1 0-0.1 0.1-0.1 0.1-0.1 0.1 0 0.1 0.1 0.1 0 0.1 0.1l16.3 18.2v4.4h0.4v-23.2h-0.4zm-13.5 9h-6.5q-0.8 0-1.2-0.4-0.3-0.4-0.3-1.2v-27.9q0-0.8 0.3-1.1 0.4-0.4 1.2-0.4h4.5q0.8 0 1.4 0.3 0.6 0.2 1.2 0.9l8.3 9.5v-9.2q0-0.8 0.3-1.1 0.4-0.4 1.2-0.4h6.5q0.8 0 1.2 0.4 0.3 0.3 0.3 1.1v27.9q0 0.8-0.3 1.2-0.4 0.4-1.2 0.4h-6.5q-0.8 0-1.2-0.4-0.3-0.4-0.3-1.2v-5.3l-7.4-8.9v14.2q0 0.8-0.3 1.2-0.4 0.4-1.2 0.4zm45.9 0h-20q-0.8 0-1.2-0.4-0.3-0.4-0.3-1.2v-27.9q0-0.8 0.3-1.1 0.4-0.4 1.2-0.4h20q0.8 0 1.1 0.4 0.4 0.3 0.4 1.1v5.1q0 0.8-0.4 1.2-0.3 0.3-1.1 0.3h-11.9v3.3h8.4q0.8 0 1.2 0.4 0.3 0.4 0.3 1.2v4.6q0 0.8-0.3 1.2-0.4 0.3-1.2 0.3h-8.4v3.7h11.9q0.8 0 1.1 0.4 0.4 0.4 0.4 1.2v5q0 0.8-0.4 1.2-0.3 0.4-1.1 0.4zm-2.3-3.9v-0.4h-14.1v-11.2h10.6v-0.4h-10.6v-10.8h14.1v-0.4h-14.5v23.2zm29.3 3.9h-10.5q-5.4 0-8-2.2-2.6-2.1-2.6-6.6v-13.4q0-4.5 2.6-6.6 2.6-2.2 8-2.2h10.5q0.8 0 1.2 0.4 0.3 0.3 0.3 1.1v5.2q0 0.9-0.3 1.2-0.4 0.4-1.2 0.4h-8.7q-1.3 0-1.9 0.6-0.7 0.5-0.7 1.5v10.3q0 1.1 0.7 1.6 0.6 0.4 1.9 0.4h8.7q0.8 0 1.2 0.4 0.3 0.4 0.3 1.2v5.1q0 0.8-0.3 1.2-0.4 0.4-1.2 0.4zm-2.4-3.9v-0.4h-7.2q-3.8 0-5.1-1.2-1.3-1.2-1.3-4v-12q0-2.8 1.3-4 1.4-1.2 5.1-1.2h7.2v-0.4h-7.2q-4.1 0-5.5 1.3-1.3 1.2-1.3 4.3v12q0 3 1.3 4.3 1.4 1.3 5.5 1.3zm23.4 3.9h-6.9q-0.8 0-1.2-0.4-0.4-0.4-0.4-1.2v-21.1h-6.3q-0.8 0-1.2-0.4-0.3-0.3-0.3-1.2v-5.2q0-0.8 0.3-1.1 0.4-0.4 1.2-0.4h22.7q0.8 0 1.2 0.4 0.4 0.3 0.4 1.1v5.2q0 0.9-0.4 1.2-0.4 0.4-1.2 0.4h-6.3v21.1q0 0.8-0.4 1.2-0.3 0.4-1.2 0.4zm-3.7-26.7v22.8h0.5v-22.8h8.8v-0.4h-18.1v0.4zm58.9 15v-1.4q0-1.1 0.2-2.1 0.2-1 0.5-1.9l2.8-7q0.4-1.1 0.9-1.8 0.5-0.8 1.8-0.8h4.2q1.2 0 1.8 0.8 0.5 0.7 0.9 1.8l3 7q0.3 0.9 0.5 1.9 0.2 1 0.2 2.1v1.4zm6.9-10.3l-2 6.6h6.7l-2-6.6q-0.2-0.4-0.4-0.5-0.2-0.2-0.4-0.2h-1.1q-0.3 0-0.5 0.2-0.1 0.1-0.3 0.5zm9.9 10.7v7.4h0.4v-9.2q0-1.2-0.2-2.2-0.2-1-0.5-1.9l-3-7.1q-0.5-1.2-1.1-2-0.6-0.8-2-0.8h-4.2q-1.5 0-2.1 0.8-0.6 0.8-1 2l-2.8 7.1q-0.3 0.9-0.6 1.9-0.1 1-0.1 2.2v9.2h0.4v-7.4zm-12.3 3.7v6q0 0.8-0.4 1.2-0.4 0.4-1.2 0.4h-6.3q-0.8 0-1.2-0.4-0.4-0.4-0.4-1.2v-11.3q0-1.3 0.4-3 0.5-1.7 1.3-3.9l3.8-9.8q0.2-0.7 0.7-1.1 0.6-0.3 1.5-0.3h11.5q0.8 0 1.4 0.3 0.5 0.4 0.8 1.1l3.7 9.8q0.9 2.2 1.3 3.9 0.4 1.7 0.4 3v11.3q0 0.8-0.4 1.2-0.3 0.4-1.2 0.4h-6.4q-0.9 0-1.3-0.4-0.4-0.4-0.4-1.2v-6zm27.7-19.1h9.3q2.3 0 3.4 1.2 1.1 1.3 1.1 3.3v3q0 2.3-0.9 3.6-0.9 1.3-3.6 1.3h-9.3zm7.8 3.5h-3.2v5.5h3.2q1.2 0 1.5-0.6 0.4-0.6 0.4-1.5v-1.4q0-0.9-0.4-1.4-0.3-0.6-1.5-0.6zm-8.3 19.3h0.5v-10h12.1q2.5 0 3.6 1.1 1.2 1 1.2 3.1v5.8h0.4v-5.8q0-2.2-1.3-3.3-1.2-1.3-3.9-1.3h-0.4q1.5-0.4 2-1.7 0.5-1.3 0.5-3.2v-3q0-2.1-1.2-3.5-1.2-1.4-3.7-1.4h-9.8zm3.6 3.9h-6.7q-0.8 0-1.2-0.4-0.3-0.4-0.3-1.2v-27.9q0-0.8 0.3-1.1 0.4-0.4 1.2-0.4h14.4q4.8 0 6.6 2 1.8 2 1.8 5.2v2q0 1.8-0.5 3.1-0.5 1.2-1.9 1.8 2.3 0.2 3.8 1.9 1.4 1.6 1.4 4.3v9.1q0 0.8-0.4 1.2-0.3 0.4-1.1 0.4h-6.7q-0.8 0-1.2-0.4-0.3-0.4-0.3-1.2v-6.6q0-0.9-0.4-1.3-0.4-0.5-1.3-0.5h-6v8.4q0 0.8-0.4 1.2-0.3 0.4-1.1 0.4z"/>
	<path id="Text layer 1" class="s1" aria-label="Conect@ar
Sistema de informação
"  d="m220.5 79.9h-8.2q-4.8 0-7.9-0.8-3.1-0.7-5-2.1-1.7-1.4-2.4-3.3-0.7-2-0.7-4.3v-17.7q0-2.3 0.7-4.3 0.7-1.9 2.4-3.3 1.9-1.4 5-2.2 3.1-0.8 7.9-0.8 4.9 0 8 0.8 3.1 0.8 4.9 2.2 1.8 1.4 2.5 3.3 0.7 2 0.7 4.3v11.2q0 2-0.4 3.6-0.3 1.6-1.4 2.8-1.1 1.1-2.9 1.8-1.9 0.6-4.9 0.6h-8.2q-4.3 0-6-1.7-1.5-1.8-1.5-4.6v-8.3q0-2.8 1.5-4.5 1.7-1.8 6-1.8h9.7q0.6 0 0.8 0.3 0.3 0.3 0.3 0.8v15q1.7 0 2.2-1 0.5-1.2 0.5-2.9v-11.4q0-1.4-0.5-2.6-0.5-1.2-1.8-2-1.3-0.8-3.6-1.3-2.3-0.4-5.9-0.4-3.5 0-5.8 0.4-2.3 0.5-3.6 1.3-1.3 0.8-1.8 2-0.5 1.2-0.5 2.6v17.9q0 1.4 0.5 2.6 0.5 1.1 1.8 2 1.3 0.8 3.6 1.3 2.3 0.4 5.8 0.4h8.2q0.8 0 1.1 0.3 0.4 0.3 0.4 1.1v1.3q0 0.8-0.4 1.1-0.3 0.3-1.1 0.3zm-8.2-1.7h7.5v-0.5h-7.5q-4.4 0-7.2-0.6-2.7-0.7-4.1-1.8-1.5-1.2-1.9-2.7-0.5-1.5-0.5-3.1v-17.9q0-1.7 0.5-3.1 0.5-1.5 1.9-2.6 1.5-1.2 4.2-1.8 2.7-0.7 7.1-0.7 4.5 0 7.2 0.7 2.7 0.6 4.2 1.8 1.4 1.1 1.8 2.6 0.5 1.4 0.5 3.1v11.4q0 3-1.1 4.4-1 1.3-3.5 1.3h-3.2v-15.4h-6.2q-2.1 0-3.3 0.4-1.1 0.4-1.7 1.1-0.5 0.6-0.6 1.4-0.1 0.8-0.1 1.7v6.9q0 2.3 0.9 3.3 0.8 1 3 1h11.2q2.7 0 3.9-1.4 1.2-1.5 1.2-4.7v-11.4q0-1.7-0.5-3.2-0.5-1.6-1.9-2.8-1.4-1.2-4.3-1.9-2.8-0.7-7.5-0.7-4.6 0-7.5 0.7-2.8 0.7-4.2 1.9-1.5 1.2-2 2.8-0.4 1.5-0.4 3.2v17.9q0 1.7 0.4 3.3 0.5 1.5 2 2.7 1.4 1.2 4.2 2 2.9 0.7 7.5 0.7zm5.4-9.5h-7.5q-1.9 0-2.7-0.9-0.7-1-0.7-3v-6.9q0-0.8 0-1.6 0.2-0.7 0.6-1.3 0.6-0.5 1.6-0.9 1.1-0.3 3-0.3h5.7zm-6.2-2.9h2.9v-9.5h-2.4q-1.2 0-1.6 0.5-0.3 0.5-0.3 1v6.5q0 0.7 0.3 1.1 0.3 0.4 1.1 0.4z"/>
	<path id="Text layer 1" class="s2" aria-label="Conect@ar
Sistema de informação
"  d="m46.4 100.8q0.1 1.6 1 2.5 0.8 1 2.2 1 1.4 0 2.2-0.6 0.8-0.7 0.8-1.9 0-1.1-0.9-1.9-0.9-0.7-2.8-1.8-0.2-0.1-0.8-0.4-0.5-0.4-0.7-0.5-0.2-0.2-0.6-0.6-0.4-0.4-0.5-0.7-0.4-0.8-0.4-1.6 0-1.9 1.3-2.9 1.3-1.1 3.2-1.1 0.8 0 3.9 0.6-0.2 1.9-0.5 3.4l-0.8 0.1q-0.1-1.8-0.4-2.5-0.8-0.6-2.1-0.6-1.4 0-2.1 0.6-0.7 0.6-0.7 1.7 0 1.3 2.2 2.6 0.3 0.1 1.1 0.6 0.8 0.4 1.3 0.7 0.5 0.3 1.1 0.8 1.3 1 1.3 2.6 0 2.2-1.5 3.3-1.5 1.2-3.6 1.2-2.2 0-4.1-0.9 0-0.2 0-1.6 0-1.3 0.1-1.9zm13.6-2.8v5.5q0 0.3 0 0.4 0.1 0.2 0.3 0.3 0.4 0.2 1.1 0.3h0.2l-0.2 0.7q-1.5-0.2-2.3-0.2-0.9 0-2.3 0.2l-0.2-0.7q0.9-0.1 1.2-0.3 0.3-0.1 0.3-0.3 0.1-0.1 0.1-0.4v-6q0-0.6-0.4-0.7-0.3-0.1-1 0.1l-0.1-0.7q0.6-0.2 1.6-0.5 1-0.2 1.6-0.2l0.3 0.4q-0.2 0.9-0.2 2.1zm-2.2-5.3q-0.4-0.4-0.4-0.9 0-0.5 0.4-0.9 0.3-0.3 0.9-0.3 0.6 0 0.9 0.3 0.4 0.4 0.4 0.9 0 0.5-0.4 0.9-0.3 0.3-0.9 0.3-0.5 0-0.9-0.3zm8.2 11.8q1.8 0 1.8-1.5 0-0.7-0.5-1.1-0.5-0.4-1.4-0.9-0.9-0.4-1.3-0.6-0.3-0.2-0.7-0.5-0.7-0.6-0.7-1.8 0-1.2 0.9-1.9 0.9-0.7 2.4-0.7 0.7 0 2.7 0.5-0.2 1.3-0.4 2.2l-0.5 0.1q-0.5-2-2-2-0.7 0-1.1 0.4-0.4 0.3-0.4 0.9 0 0.6 0.4 1 0.4 0.3 0.9 0.5 0.6 0.3 1 0.5l0.5 0.3q0.6 0.3 0.8 0.4 0.1 0.2 0.4 0.4 0.2 0.1 0.3 0.3 0.1 0.2 0.2 0.4 0.2 0.4 0.2 1 0 1.5-1 2.2-1 0.8-2.6 0.8-1.6 0-2.7-0.6-0.1-0.4-0.1-1.2 0-0.9 0.1-1.2l0.6-0.2q0.2 1 0.8 1.7 0.6 0.6 1.4 0.6zm8.1-7.6v5.4q0 1 0.4 1.4 0.4 0.3 1.1 0.3 0.8 0 1.8-0.7l0.3 0.5q-1.8 1.6-3 1.6-2.3 0-2.3-2.8v-5.8h-1.3l-0.1-0.6 1.4-0.4v-1.4l1.7-0.8v2.4l2.8-0.2-0.1 1.1zm9.8 7.2q1.3 0 2.6-1l0.4 0.5q-2 1.8-3.9 1.8-1.9 0-3.1-1.2-1.2-1.3-1.2-3.5 0-2.1 1.2-3.6 1.3-1.5 3.2-1.5 1.9 0 2.9 1.2 0.9 1.2 0.9 3.2l-6.2 0.5q0.2 3.6 3.2 3.6zm-0.9-7.6q-1.2 0-1.8 0.9-0.5 1-0.5 2.3l4.2-0.6q0-2.6-1.9-2.6zm12.2-0.9q2.1 0 2.6 1.7l1-0.7q1.2-1 2.6-1 1.3 0 2 0.8 0.7 0.7 0.7 2.5v4.7q0 0.3 0 0.4 0.1 0.1 0.3 0.3 0.2 0.1 1 0.3h0.2l-0.1 0.7q-1.8-0.2-2.3-0.2-0.5 0-2.3 0.2l-0.1-0.7q0.7-0.1 1-0.3 0.4-0.1 0.4-0.2 0.1-0.2 0.1-0.4v-4.4q0-1.3-0.4-1.8-0.4-0.6-1.4-0.6-1 0-2.6 1.2 0 0.5 0 0.8v4.7q0 0.3 0.1 0.4 0.1 0.1 0.3 0.3 0.3 0.2 1.1 0.3l-0.1 0.7q-1.8-0.2-2.3-0.2-0.4 0-2.2 0.2l-0.1-0.7q1.2-0.2 1.4-0.5 0.1-0.1 0.1-0.4v-4.4q0-1.3-0.4-1.8-0.4-0.6-1.5-0.6-1.1 0-2.5 1.1v5.7q0 0.3 0.1 0.4 0 0.1 0.3 0.2 0.4 0.2 1.1 0.3l-0.1 0.7q-1.8-0.2-2.3-0.2-0.5 0-2.3 0.2l-0.1-0.7q0.8-0.1 1.1-0.3 0.4-0.2 0.4-0.3 0.1-0.1 0.1-0.4v-5.9q0-0.7-0.4-0.7-0.4-0.1-1 0l-0.2 0.1-0.1-0.7q1.5-0.7 2.8-0.8l0.4 0.4q0 0.6 0.2 1.2l0.8-0.6q1.3-1 2.6-1zm13.7 7q0 0.6 0.4 1.1 0.4 0.4 1.1 0.4 0.8 0 1.9-0.9v-2.5l-1.7 0.3q-1.7 0.3-1.7 1.6zm5.2-3.8v4.5q0 0.8 0.8 0.8h0.6l0.2 0.6q-1.1 0.2-2.3 0.7-0.8-0.5-1-1.4-1 0.8-1.6 1.1-0.6 0.3-1.3 0.3-1.1 0-1.8-0.7-0.6-0.7-0.6-1.9 0-1.2 0.8-1.7 0.9-0.6 2.4-0.8l2-0.2v-1q0-1.3-0.3-1.9-0.4-0.6-1.4-0.6-1 0-1.5 0.2-0.1 0.5-0.1 2.1l-0.9 0.2q-0.5-1.6-0.6-2.4 2.4-1.1 3.5-1.1 1.6 0 2.3 0.8 0.8 0.7 0.8 2.4zm16.3-7v11.4q0 0.6 0.3 0.7 0.4 0.2 0.7 0.2 0.4 0 0.8-0.1l0.1 0.7q-1.4 0.3-2.6 0.7-0.8-0.6-1-1.5-1.8 1.5-2.9 1.5-1.9 0-3-1.2-1-1.2-1-3.4 0-2.3 1.3-3.7 1.3-1.5 3.5-1.5 1.1 0 2.1 0.4v-4.6q0-0.7-0.4-0.7-0.4-0.1-1.2 0l-0.2 0.1-0.1-0.7q0.6-0.3 1.7-0.5 1-0.3 1.7-0.3l0.4 0.4q-0.2 0.6-0.2 2.1zm-6.6 8.6q0 1.9 0.7 2.8 0.7 0.9 1.9 0.9 1.1 0 2.3-0.8v-5.5q-0.4-0.6-1.1-1-0.6-0.3-1.2-0.3-1.2 0-1.9 1-0.7 0.9-0.7 2.9zm14.8 3.7q1.3 0 2.6-1l0.4 0.5q-2 1.8-3.9 1.8-1.9 0-3.1-1.2-1.1-1.3-1.1-3.5 0-2.1 1.2-3.6 1.2-1.5 3.1-1.5 1.9 0 2.9 1.2 0.9 1.2 0.9 3.2l-6.2 0.5q0.2 3.6 3.2 3.6zm-0.9-7.6q-1.2 0-1.7 0.9-0.6 1-0.6 2.3l4.2-0.6q0-2.6-1.9-2.6zm13.6 1.6v5.5q0 0.3 0.1 0.4 0 0.1 0.3 0.3 0.4 0.2 1 0.3h0.2l-0.1 0.7q-1.5-0.2-2.3-0.2-0.9 0-2.4 0.2l-0.1-0.7q0.8-0.1 1.1-0.3 0.4-0.2 0.4-0.3 0.1-0.1 0.1-0.4v-6q0-0.7-0.4-0.7-0.3-0.1-1 0.1l-0.2-0.7q0.7-0.3 1.7-0.5 1-0.2 1.5-0.2l0.4 0.4q-0.3 0.9-0.3 2.1zm-2.1-5.3q-0.4-0.4-0.4-0.9 0-0.5 0.4-0.9 0.3-0.3 0.9-0.3 0.6 0 0.9 0.3 0.4 0.4 0.4 0.9 0 0.5-0.4 0.9-0.3 0.3-0.9 0.3-0.6 0-0.9-0.3zm8.4 5.2v5.7q0 0.3 0 0.4 0.1 0.1 0.3 0.2 0.4 0.2 1.2 0.3l-0.2 0.7q-1.8-0.2-2.2-0.2-0.5 0-2.3 0.2l-0.2-0.7q0.9-0.1 1.2-0.3 0.3-0.2 0.4-0.3 0-0.1 0-0.4v-5.9q0-0.7-0.3-0.7-0.4-0.1-1 0l-0.3 0.1-0.1-0.7q1.6-0.7 2.9-0.8l0.3 0.4q0 0.6 0.3 1.2l0.8-0.6q1.3-1 2.6-1 1.4 0 2.2 0.8 0.7 0.7 0.7 2.5v4.7q0 0.3 0 0.4 0.1 0.1 0.3 0.3 0.3 0.1 1.1 0.3h0.2l-0.1 0.7q-1.9-0.2-2.3-0.2-0.5 0-2.3 0.2l-0.2-0.7q0.8-0.1 1.1-0.3 0.3-0.1 0.4-0.2 0-0.2 0-0.4v-4.4q0-1.2-0.4-1.8-0.5-0.6-1.6-0.6-1.1 0-2.5 1.1zm10.7-2.1v-1.2q0-2.3 1.1-3.8 1.1-1.6 3.1-1.6 0.9 0 2.4 0.4-0.2 1.1-0.8 2.7l-0.6 0.1q0-0.9-0.5-1.6-0.4-0.7-1.3-0.7-0.8 0-1.2 1-0.4 1-0.4 2.2v2.6l2.6-0.2-0.2 1.2-2.4-0.1v6.7q0 0.3 0 0.4 0.1 0.1 0.3 0.2 0.4 0.2 1.3 0.4h0.3l-0.2 0.7q-1.8-0.2-2.5-0.2-0.6 0-2.4 0.2l-0.2-0.7q0.9-0.1 1.2-0.3 0.3-0.2 0.3-0.3 0.1-0.1 0.1-0.4v-6.7h-1.4l-0.1-0.6zm10.3 9.5q-2.1 0-3.3-1.3-1.2-1.3-1.2-3.5 0-2.2 1.3-3.6 1.2-1.5 3.4-1.5 2.1 0 3.3 1.3 1.2 1.3 1.2 3.5 0 2.2-1.3 3.6-1.2 1.5-3.4 1.5zm-2.5-5.2q0 2.1 0.7 3.2 0.8 1.1 2.2 1.1 2.3 0 2.3-3.8 0-2.1-0.8-3.2-0.7-1.1-2.1-1.1-2.3 0-2.3 3.8zm14.2-3.2q-0.8 0-2 1.7v4.8q0 0.3 0.1 0.5 0.1 0.1 0.4 0.2 0.3 0.1 1.3 0.2h0.4l-0.2 0.8q-2-0.2-2.8-0.2-0.9 0-2.3 0.2l-0.2-0.7q0.8-0.1 1.1-0.3 0.4-0.1 0.4-0.2 0.1-0.1 0.1-0.4v-6q0-0.6-0.4-0.7-0.4 0-1 0.1h-0.2l-0.1-0.7q1.5-0.6 2.9-0.8l0.3 0.4q0 0.7 0.2 1.7l0.8-0.9q0.9-1.2 1.9-1.2 0.5 0 1.6 0.4-0.3 1.8-0.7 2.9h-0.6q0-0.8-0.3-1.3-0.2-0.5-0.7-0.5zm9.8-1.5q2.1 0 2.6 1.8l1-0.8q1.2-1 2.6-1 1.3 0 2 0.8 0.7 0.7 0.7 2.5v4.8q0 0.3 0 0.4 0.1 0.1 0.3 0.2 0.2 0.1 1 0.3h0.2l-0.1 0.7q-1.8-0.2-2.3-0.2-0.5 0-2.3 0.2l-0.1-0.6q0.7-0.2 1-0.3 0.4-0.2 0.4-0.3 0.1-0.1 0.1-0.4v-4.3q0-1.3-0.4-1.9-0.4-0.5-1.4-0.5-1 0-2.6 1.1 0 0.5 0 0.8v4.8q0 0.3 0.1 0.4 0.1 0.1 0.2 0.2 0.4 0.2 1.2 0.3l-0.1 0.7q-1.8-0.2-2.3-0.2-0.4 0-2.2 0.2l-0.1-0.6q1.2-0.3 1.4-0.6 0.1-0.1 0.1-0.4v-4.3q0-1.3-0.4-1.9-0.4-0.5-1.5-0.5-1.1 0-2.5 1.1v5.6q0 0.3 0.1 0.4 0 0.1 0.3 0.2 0.4 0.2 1.1 0.4l-0.1 0.6q-1.8-0.2-2.3-0.2-0.5 0-2.3 0.2l-0.1-0.7q0.8-0.1 1.1-0.3 0.4-0.1 0.4-0.2 0.1-0.1 0.1-0.4v-6q0-0.6-0.4-0.7-0.4 0-1 0.1h-0.2l-0.1-0.7q1.5-0.6 2.8-0.8l0.4 0.4q0 0.6 0.2 1.2l0.8-0.6q1.3-1 2.6-1zm13.7 7.1q0 0.6 0.4 1 0.4 0.4 1.1 0.4 0.8 0 1.9-0.8v-2.5l-1.7 0.3q-1.7 0.3-1.7 1.6zm5.2-3.9v4.5q0 0.8 0.8 0.8h0.6l0.2 0.6q-1.1 0.3-2.3 0.8-0.8-0.6-1-1.5-1 0.8-1.6 1.2-0.6 0.3-1.3 0.3-1.1 0-1.8-0.7-0.6-0.7-0.6-1.9 0-1.2 0.8-1.8 0.9-0.6 2.4-0.8l2-0.2v-1q0-1.2-0.3-1.9-0.4-0.6-1.4-0.6-1 0-1.5 0.3-0.1 0.4-0.1 2l-0.9 0.3q-0.5-1.7-0.6-2.5 2.4-1.1 3.5-1.1 1.6 0 2.3 0.8 0.8 0.8 0.8 2.4zm6.3 6.6q-1.5-0.3-2.4-1.6-1-1.2-1-3.2 0-2 1.2-3.5 1.2-1.5 3.3-1.5 0.6 0 1.7 0.3 1.1 0.3 1.7 0.5-0.1 0.5-0.4 1.6-0.2 1-0.4 1.4l-0.8-0.1q0.1-0.2 0.1-0.5 0-1.4-0.3-1.8-0.6-0.5-1.8-0.5-2.3 0-2.3 3.7 0 1.9 0.9 2.9 0.8 1 2.1 1 1.4 0 2.7-0.9l0.3 0.5q-1.9 1.8-3.6 1.8l-0.4 1.2q0.7 0 1.2 0.5 0.5 0.5 0.5 1.3 0 0.8-0.6 1.3-0.6 0.6-1.5 0.6-0.9 0-2.1-0.6l0.4-0.7q0.8 0.4 1.5 0.4 1.1 0 1.1-0.9 0-0.6-0.5-0.9-0.3-0.2-0.6-0.2-0.4 0-0.7 0.1l-0.2-0.5zm8-2.7q0 0.7 0.4 1.1 0.4 0.4 1.1 0.4 0.8 0 1.9-0.8v-2.6l-1.7 0.4q-1.7 0.2-1.7 1.5zm5.2-3.8v4.5q0 0.8 0.8 0.8h0.6l0.2 0.6q-1.1 0.2-2.3 0.8-0.8-0.6-1-1.5-1 0.8-1.6 1.1-0.7 0.4-1.3 0.4-1.1 0-1.8-0.8-0.6-0.7-0.6-1.8 0-1.3 0.8-1.8 0.9-0.6 2.4-0.8l2-0.2v-1q0-1.2-0.4-1.9-0.3-0.6-1.3-0.6-1 0-1.5 0.2-0.1 0.5-0.1 2.1l-0.9 0.2q-0.5-1.6-0.6-2.4 2.4-1.1 3.5-1.1 1.6 0 2.3 0.8 0.8 0.8 0.8 2.4zm-3.2-5.7q-1-0.5-1.5-0.5-0.5 0-1.3 1l-0.6-0.4q0.3-0.4 0.8-1 0.6-0.7 0.9-0.9l0.5-0.1q0.3 0.1 1.3 0.5 0.9 0.4 1.5 0.4 0.5 0 1.2-0.9l0.6 0.3q-0.2 0.4-0.8 1.1-0.5 0.7-0.8 0.9l-0.5 0.1q-0.3-0.1-1.3-0.5zm10.6 12.4q-2.1 0-3.3-1.3-1.2-1.3-1.2-3.5 0-2.2 1.3-3.7 1.3-1.4 3.4-1.4 2.1 0 3.3 1.3 1.2 1.3 1.2 3.5 0 2.1-1.3 3.6-1.2 1.5-3.4 1.5zm-2.5-5.2q0 2 0.8 3.1 0.7 1.1 2.1 1.1 2.3 0 2.3-3.7 0-2.1-0.7-3.2-0.8-1.1-2.2-1.1-2.3 0-2.3 3.8z"/>
</svg>