<svg version="1.2" xmlns="http://www.w3.org/2000/svg" viewBox="0 0 190 60" width="190" height="60">
	<title>Novo Projeto</title>
	<style>
		.s0 { fill: #ffffff } 
		.s1 { fill: #ff0000 } 
	</style>
	<path id="Conect@r" class="s0" aria-label="Conect@r"  d="m38.8 43h-9.5q-4.9 0-7.3-2-2.3-1.9-2.3-6v-12.1q0-4 2.3-6 2.4-2 7.3-2h9.5q0.7 0 1 0.4 0.4 0.3 0.4 1v4.7q0 0.8-0.4 1.1-0.3 0.3-1 0.3h-7.8q-1.3 0-1.8 0.6-0.6 0.4-0.6 1.4v9.3q0 1 0.6 1.4 0.5 0.5 1.8 0.5h7.8q0.7 0 1 0.3 0.4 0.3 0.4 1.1v4.6q0 0.7-0.4 1.1-0.3 0.3-1 0.3zm-2.2-3.5v-0.4h-6.5q-3.5 0-4.6-1.1-1.2-1-1.2-3.5v-11q0-2.5 1.2-3.6 1.2-1.1 4.6-1.1h6.5v-0.4h-6.5q-3.7 0-5 1.2-1.2 1.2-1.2 3.9v11q0 2.6 1.2 3.8 1.3 1.2 5 1.2zm22.8-10.3v8.9q0 1.2-0.4 2.2-0.3 0.9-1.3 1.6-0.8 0.7-2.4 1.1-1.6 0.4-4 0.4-2.4 0-4-0.4-1.6-0.4-2.5-1.1-0.9-0.7-1.2-1.6-0.4-1-0.4-2.2v-8.9q0-1.2 0.4-2.1 0.3-1 1.2-1.7 0.9-0.7 2.5-1.1 1.6-0.4 4-0.4 2.4 0 4 0.4 1.6 0.4 2.4 1.1 1 0.7 1.3 1.7 0.4 0.9 0.4 2.1zm-2.9 8.3v-7.7q0-1.5-1.1-2.5-1.1-1-4.2-1-3 0-4.1 1-1.1 1-1.1 2.5v7.7q0 1.5 1.1 2.5 1.1 1 4.1 1 3.1 0 4.2-1 1.1-1 1.1-2.5zm-10.2 0v-7.7q0-1.4 1-2.3 1.1-0.9 3.9-0.9 2.9 0 4 0.9 1.1 0.9 1.1 2.3v7.7q0 1.4-1.1 2.4-1.1 0.8-4 0.8-2.8 0-3.9-0.8-1-1-1-2.4zm2.8-7.3v6.9q0 0.6 0.4 0.9 0.4 0.4 1.8 0.4 1.4 0 1.8-0.4 0.4-0.3 0.4-0.9v-6.9q0-0.5-0.4-0.9-0.4-0.3-1.8-0.3-1.4 0-1.8 0.3-0.4 0.4-0.4 0.9zm26.6 7.4l-9.6-10.8q-0.1-0.1-0.2-0.2-0.1 0-0.2 0-0.1 0-0.2 0.1-0.1 0-0.1 0.2v13.8h0.3v-13.7q0-0.1 0-0.1 0 0 0 0 0 0 0.1 0 0 0 0 0.1l9.9 11v2.7h0.2v-14.1h-0.2zm-8.2 5.4h-3.9q-0.5 0-0.7-0.2-0.2-0.2-0.2-0.7v-16.9q0-0.5 0.2-0.7 0.2-0.2 0.7-0.2h2.7q0.5 0 0.8 0.2 0.4 0.1 0.7 0.5l5.1 5.8v-5.6q0-0.5 0.2-0.7 0.2-0.2 0.7-0.2h3.9q0.5 0 0.7 0.2 0.3 0.2 0.3 0.7v16.9q0 0.5-0.3 0.7-0.2 0.2-0.7 0.2h-3.9q-0.5 0-0.7-0.2-0.2-0.2-0.2-0.7v-3.2l-4.5-5.4v8.6q0 0.5-0.2 0.7-0.2 0.2-0.7 0.2zm27.7 0h-12q-0.5 0-0.8-0.2-0.2-0.2-0.2-0.7v-16.9q0-0.4 0.2-0.7 0.3-0.2 0.8-0.2h12q0.5 0 0.7 0.2 0.3 0.3 0.3 0.7v3.1q0 0.5-0.3 0.7-0.2 0.2-0.7 0.2h-7.1v2h5q0.5 0 0.7 0.3 0.3 0.2 0.3 0.7v2.7q0 0.5-0.3 0.8-0.2 0.2-0.7 0.2h-5v2.2h7.1q0.5 0 0.7 0.2 0.3 0.3 0.3 0.7v3.1q0 0.5-0.3 0.7-0.2 0.2-0.7 0.2zm-1.4-2.3v-0.3h-8.5v-6.7h6.4v-0.3h-6.4v-6.5h8.5v-0.3h-8.7v14.1zm17.7 2.3h-6.3q-3.3 0-4.9-1.3-1.5-1.3-1.5-4v-8.1q0-2.7 1.5-4 1.6-1.3 4.9-1.3h6.3q0.5 0 0.7 0.2 0.2 0.3 0.2 0.7v3.2q0 0.5-0.2 0.7-0.2 0.2-0.7 0.2h-5.2q-0.8 0-1.2 0.4-0.4 0.3-0.4 0.9v6.2q0 0.7 0.4 1 0.4 0.3 1.2 0.3h5.2q0.5 0 0.7 0.2 0.2 0.2 0.2 0.7v3.1q0 0.5-0.2 0.7-0.2 0.2-0.7 0.2zm-1.4-2.3v-0.3h-4.4q-2.3 0-3.1-0.7-0.8-0.7-0.8-2.4v-7.2q0-1.8 0.8-2.5 0.8-0.7 3.1-0.7h4.4v-0.3h-4.4q-2.5 0-3.3 0.8-0.8 0.8-0.8 2.7v7.2q0 1.8 0.8 2.6 0.8 0.8 3.3 0.8zm14.2 2.3h-4.2q-0.5 0-0.8-0.2-0.2-0.2-0.2-0.7v-12.8h-3.8q-0.5 0-0.7-0.2-0.2-0.2-0.2-0.7v-3.2q0-0.4 0.2-0.7 0.2-0.2 0.7-0.2h13.7q0.5 0 0.7 0.2 0.3 0.3 0.3 0.7v3.2q0 0.5-0.3 0.7-0.2 0.2-0.7 0.2h-3.8v12.8q0 0.5-0.2 0.7-0.2 0.2-0.7 0.2zm-2.3-16.1v13.8h0.3v-13.8h5.3v-0.3h-10.9v0.3zm36.1 0h5.6q1.4 0 2.1 0.8 0.6 0.7 0.6 1.9v1.8q0 1.5-0.5 2.2-0.5 0.8-2.2 0.8h-5.6zm4.7 2.1h-1.9v3.3h1.9q0.7 0 0.9-0.3 0.3-0.4 0.3-0.9v-0.9q0-0.5-0.3-0.8-0.2-0.4-0.9-0.4zm-5 11.7h0.3v-6h7.3q1.5 0 2.2 0.6 0.7 0.6 0.7 1.9v3.5h0.3v-3.5q0-1.3-0.8-2-0.8-0.8-2.4-0.8h-0.3q1-0.2 1.3-1 0.3-0.8 0.3-2v-1.8q0-1.2-0.7-2.1-0.7-0.8-2.3-0.8h-5.9zm2.1 2.3h-4q-0.5 0-0.7-0.2-0.2-0.2-0.2-0.7v-16.9q0-0.5 0.2-0.7 0.2-0.2 0.7-0.2h8.7q2.9 0 4 1.2 1.1 1.2 1.1 3.1v1.2q0 1.1-0.3 1.9-0.3 0.7-1.1 1.1 1.4 0.1 2.2 1.1 0.9 1 0.9 2.7v5.5q0 0.5-0.2 0.7-0.2 0.2-0.7 0.2h-4.1q-0.4 0-0.7-0.2-0.2-0.2-0.2-0.7v-4q0-0.6-0.2-0.8-0.2-0.3-0.8-0.3h-3.6v5.1q0 0.5-0.3 0.7-0.2 0.2-0.7 0.2z"/>
	<path id="Conect@r" class="s1" aria-label="Conect@r"  d="m146.9 45.4h-4.9q-2.9 0-4.8-0.5-1.9-0.5-3-1.3-1.1-0.8-1.5-2-0.4-1.2-0.4-2.6v-10.7q0-1.4 0.4-2.6 0.4-1.2 1.5-2 1.1-0.8 3-1.3 1.9-0.5 4.8-0.5 2.9 0 4.8 0.5 1.9 0.5 3 1.3 1.1 0.8 1.5 2 0.4 1.2 0.4 2.6v6.8q0 1.2-0.2 2.2-0.2 0.9-0.9 1.6-0.6 0.7-1.8 1.1-1.1 0.4-2.9 0.4h-4.9q-2.7 0-3.7-1-0.9-1.1-0.9-2.8v-5q0-1.7 0.9-2.8 1-1 3.7-1h5.8q0.3 0 0.5 0.1 0.2 0.2 0.2 0.5v9.1q1 0 1.3-0.6 0.3-0.7 0.3-1.8v-6.9q0-0.8-0.3-1.5-0.3-0.7-1.1-1.2-0.8-0.5-2.2-0.8-1.4-0.3-3.5-0.3-2.1 0-3.5 0.3-1.4 0.3-2.2 0.8-0.8 0.5-1.1 1.2-0.3 0.7-0.3 1.5v10.9q0 0.8 0.3 1.5 0.3 0.7 1.1 1.2 0.8 0.5 2.2 0.8 1.4 0.3 3.5 0.3h4.9q0.5 0 0.7 0.2 0.2 0.2 0.2 0.7v0.7q0 0.5-0.2 0.7-0.2 0.2-0.7 0.2zm-4.9-1.1h4.5v-0.3h-4.5q-2.7 0-4.4-0.4-1.6-0.4-2.5-1-0.8-0.7-1.1-1.6-0.3-0.9-0.3-1.9v-10.9q0-1 0.3-1.8 0.3-0.9 1.1-1.6 0.9-0.7 2.6-1.1 1.6-0.4 4.3-0.4 2.7 0 4.3 0.4 1.7 0.4 2.5 1.1 0.9 0.7 1.2 1.6 0.3 0.8 0.3 1.8v6.9q0 1.8-0.7 2.7-0.6 0.8-2.1 0.8h-2v-9.3h-3.7q-1.3 0-2 0.2-0.7 0.3-1 0.7-0.3 0.3-0.4 0.8 0 0.5 0 1v4.2q0 1.4 0.5 2 0.5 0.6 1.8 0.6h6.8q1.6 0 2.3-0.8 0.7-0.9 0.7-2.9v-6.9q0-1-0.3-1.9-0.2-1-1.1-1.7-0.9-0.7-2.6-1.1-1.7-0.5-4.5-0.5-2.8 0-4.5 0.5-1.7 0.4-2.6 1.1-0.9 0.7-1.2 1.7-0.3 0.9-0.3 1.9v10.9q0 1 0.3 1.9 0.3 1 1.2 1.7 0.9 0.7 2.6 1.2 1.7 0.4 4.5 0.4zm3.3-5.7h-4.6q-1.2 0-1.6-0.6-0.5-0.5-0.5-1.8v-4.2q0-0.4 0.1-0.9 0.1-0.4 0.3-0.8 0.3-0.3 1-0.5 0.6-0.2 1.8-0.2h3.5zm-3.8-1.8h1.7v-5.7h-1.4q-0.8 0-1 0.3-0.2 0.3-0.2 0.6v3.9q0 0.4 0.2 0.7 0.2 0.2 0.7 0.2z"/>
</svg>