<svg version="1.2" xmlns="http://www.w3.org/2000/svg" viewBox="0 0 300 80" width="300" height="80">
	<title>Novo Projeto</title>
	<style>
		.s0 { fill: #ffffff } 
		.s1 { fill: #ffff00 } 
	</style>
	<path id="Conect@r comunicação interna" class="s0" aria-label="Conect@r
comunicação interna"  d="m43.9 55h-17.3q-8.9 0-13.2-3.5-4.3-3.6-4.3-11v-22.1q0-7.3 4.3-10.9 4.3-3.6 13.2-3.6h17.3q1.4 0 1.9 0.6 0.7 0.6 0.7 1.9v8.6q0 1.4-0.7 2-0.5 0.6-1.9 0.6h-14.3q-2.2 0-3.2 0.9-1.1 0.9-1.1 2.6v16.9q0 1.8 1.1 2.7 1 0.7 3.2 0.7h14.3q1.4 0 1.9 0.7 0.7 0.5 0.7 1.9v8.4q0 1.4-0.7 2-0.5 0.6-1.9 0.6zm-3.9-6.4v-0.7h-11.9q-6.3 0-8.5-1.9-2.1-1.9-2.1-6.5v-19.9q0-4.7 2.2-6.6 2.2-2 8.4-2h11.9v-0.7h-11.9q-6.8 0-9 2.1-2.3 2.1-2.3 7.2v19.9q0 4.9 2.2 7 2.3 2.1 9.1 2.1zm42.5-19.6v16.7q0 2.3-0.6 4.2-0.7 1.8-2.4 3.1-1.7 1.3-4.6 2-3 0.7-7.5 0.7-4.6 0-7.6-0.7-3-0.7-4.7-2-1.7-1.3-2.3-3.1-0.7-1.9-0.7-4.2v-16.7q0-2.2 0.7-4 0.6-1.9 2.3-3.2 1.7-1.3 4.7-2.1 3-0.7 7.6-0.7 4.5 0 7.5 0.7 2.9 0.8 4.6 2.1 1.7 1.3 2.4 3.2 0.6 1.8 0.6 4zm-5.3 15.6v-14.4q0-3-2.1-4.8-2.1-1.9-7.8-1.9-5.8 0-7.8 1.9-2.1 1.8-2.1 4.8v14.4q0 3 2.1 4.8 2 1.8 7.8 1.8 5.7 0 7.8-1.8 2.1-1.8 2.1-4.8zm-19.3 0v-14.4q0-2.8 2-4.5 1.9-1.7 7.4-1.7 5.4 0 7.4 1.7 2 1.7 2 4.5v14.4q0 2.8-2 4.5-2 1.6-7.4 1.6-5.5 0-7.4-1.6-2-1.7-2-4.5zm5.3-13.8v13.2q0 1 0.8 1.6 0.7 0.7 3.4 0.7 2.6 0 3.3-0.7 0.8-0.6 0.8-1.6v-13.2q0-0.9-0.8-1.6-0.7-0.7-3.3-0.7-2.7 0-3.4 0.7-0.8 0.7-0.8 1.6zm50.1 14l-18.1-20.3q-0.2-0.2-0.4-0.3-0.1-0.1-0.3-0.1-0.2 0-0.4 0.1-0.2 0.2-0.2 0.5v25.9h0.5v-25.8q0-0.1 0-0.1 0.1-0.1 0.1-0.1 0.1 0 0.1 0.1 0.1 0 0.1 0.1l18.6 20.7v5.1h0.5v-26.5h-0.5zm-15.4 10.2h-7.4q-0.9 0-1.3-0.4-0.4-0.4-0.4-1.3v-31.8q0-0.9 0.4-1.3 0.4-0.5 1.3-0.5h5.1q1 0 1.6 0.3 0.7 0.3 1.3 1.1l9.5 10.8v-10.4q0-0.9 0.4-1.3 0.5-0.5 1.4-0.5h7.3q1 0 1.4 0.5 0.4 0.4 0.4 1.3v31.8q0 0.9-0.4 1.3-0.4 0.4-1.4 0.4h-7.3q-0.9 0-1.4-0.4-0.4-0.4-0.4-1.3v-6.1l-8.4-10.1v16.2q0 0.9-0.4 1.3-0.4 0.4-1.3 0.4zm52.3 0h-22.8q-0.9 0-1.3-0.4-0.4-0.4-0.4-1.3v-31.8q0-0.9 0.4-1.3 0.4-0.5 1.3-0.5h22.8q0.9 0 1.3 0.5 0.4 0.4 0.4 1.3v5.7q0 1-0.4 1.4-0.4 0.4-1.3 0.4h-13.6v3.8h9.6q0.9 0 1.3 0.4 0.5 0.4 0.5 1.3v5.3q0 0.9-0.5 1.4-0.4 0.3-1.3 0.3h-9.6v4.3h13.6q0.9 0 1.3 0.4 0.4 0.4 0.4 1.3v5.8q0 0.9-0.4 1.3-0.4 0.4-1.3 0.4zm-2.7-4.4v-0.5h-16v-12.7h12.1v-0.5h-12.1v-12.3h16v-0.4h-16.5v26.4zm33.4 4.4h-11.9q-6.2 0-9.1-2.4-3-2.5-3-7.6v-15.2q0-5.1 3-7.6 2.9-2.5 9.1-2.5h11.9q1 0 1.3 0.5 0.5 0.4 0.5 1.3v5.9q0 1-0.5 1.4-0.3 0.4-1.3 0.4h-9.8q-1.5 0-2.3 0.6-0.7 0.6-0.7 1.8v11.7q0 1.2 0.7 1.8 0.8 0.6 2.3 0.6h9.8q1 0 1.3 0.4 0.5 0.4 0.5 1.3v5.9q0 0.9-0.5 1.3-0.3 0.4-1.3 0.4zm-2.7-4.4v-0.5h-8.2q-4.4 0-5.8-1.3-1.5-1.3-1.5-4.5v-13.7q0-3.3 1.5-4.6 1.5-1.4 5.8-1.4h8.2v-0.4h-8.2q-4.7 0-6.2 1.4-1.6 1.5-1.6 5v13.7q0 3.4 1.5 4.8 1.6 1.5 6.3 1.5zm26.7 4.4h-7.9q-1 0-1.4-0.4-0.4-0.4-0.4-1.3v-24.1h-7.2q-0.9 0-1.4-0.4-0.4-0.4-0.4-1.4v-5.9q0-0.9 0.4-1.3 0.5-0.5 1.4-0.5h25.9q0.9 0 1.3 0.5 0.4 0.4 0.4 1.3v5.9q0 1-0.4 1.4-0.4 0.4-1.3 0.4h-7.2v24.1q0 0.9-0.5 1.3-0.4 0.4-1.3 0.4zm-4.2-30.4v26h0.5v-26h10v-0.4h-20.6v0.4zm68 0h10.7q2.6 0 3.8 1.5 1.3 1.4 1.3 3.6v3.5q0 2.7-1 4.1-1.1 1.5-4.1 1.5h-10.7zm9 3.9h-3.7v6.3h3.7q1.2 0 1.7-0.6 0.4-0.7 0.4-1.7v-1.7q0-1-0.4-1.6-0.5-0.7-1.7-0.7zm-9.5 22.1h0.5v-11.4h13.9q2.8 0 4.1 1.2 1.3 1.2 1.3 3.6v6.6h0.5v-6.6q0-2.5-1.5-3.9-1.4-1.3-4.4-1.3h-0.6q1.8-0.6 2.4-2 0.6-1.5 0.6-3.7v-3.4q0-2.4-1.4-4-1.4-1.6-4.2-1.6h-11.2zm4 4.4h-7.5q-0.9 0-1.4-0.4-0.4-0.4-0.4-1.3v-31.8q0-0.9 0.4-1.3 0.5-0.5 1.4-0.5h16.3q5.5 0 7.6 2.3 2.1 2.3 2.1 5.9v2.3q0 2-0.7 3.5-0.6 1.4-2.1 2.1 2.7 0.3 4.3 2.1 1.6 1.9 1.6 5v10.4q0 0.9-0.4 1.3-0.4 0.4-1.3 0.4h-7.6q-0.9 0-1.4-0.4-0.4-0.4-0.4-1.3v-7.5q0-1.1-0.4-1.6-0.4-0.5-1.4-0.5h-6.9v9.6q0 0.9-0.4 1.3-0.4 0.4-1.4 0.4zm-210.5 18h-3.7q-1.9 0-2.8-0.7-0.9-0.8-0.9-2.3v-4.7q0-1.6 0.9-2.3 0.9-0.8 2.8-0.8h3.7q0.3 0 0.4 0.2 0.1 0.1 0.1 0.4v1.8q0 0.3-0.1 0.4-0.1 0.1-0.4 0.1h-3q-0.5 0-0.7 0.2-0.2 0.2-0.2 0.6v3.5q0 0.4 0.2 0.6 0.2 0.2 0.7 0.2h3q0.3 0 0.4 0.1 0.1 0.1 0.1 0.4v1.8q0 0.3-0.1 0.4-0.1 0.1-0.4 0.1zm-0.8-1.3v-0.2h-2.5q-1.4 0-1.8-0.4-0.5-0.4-0.5-1.4v-4.2q0-1 0.5-1.4 0.4-0.4 1.8-0.4h2.5v-0.1h-2.5q-1.5 0-2 0.4-0.4 0.5-0.4 1.5v4.2q0 1.1 0.4 1.5 0.5 0.5 2 0.5zm12.1-6.6v5.1q0 0.7-0.2 1.2-0.2 0.6-0.7 1-0.6 0.4-1.5 0.6-0.9 0.2-2.3 0.2-1.4 0-2.3-0.2-0.9-0.2-1.4-0.6-0.5-0.4-0.7-1-0.2-0.5-0.2-1.2v-5.1q0-0.7 0.2-1.3 0.2-0.5 0.7-0.9 0.5-0.5 1.4-0.7 0.9-0.2 2.3-0.2 1.4 0 2.3 0.2 0.9 0.2 1.5 0.7 0.5 0.4 0.7 0.9 0.2 0.6 0.2 1.3zm-1.6 4.7v-4.4q0-0.9-0.7-1.4-0.6-0.6-2.4-0.6-1.7 0-2.4 0.6-0.6 0.5-0.6 1.4v4.4q0 0.9 0.6 1.5 0.7 0.6 2.4 0.6 1.8 0 2.4-0.6 0.7-0.6 0.7-1.5zm-6 0v-4.4q0-0.8 0.6-1.3 0.6-0.6 2.3-0.6 1.7 0 2.3 0.6 0.6 0.5 0.6 1.3v4.4q0 0.9-0.6 1.4-0.6 0.5-2.3 0.5-1.7 0-2.3-0.5-0.6-0.5-0.6-1.4zm1.7-4.2v4q0 0.3 0.2 0.6 0.2 0.2 1 0.2 0.8 0 1.1-0.2 0.2-0.3 0.2-0.6v-4q0-0.3-0.2-0.5-0.3-0.2-1.1-0.2-0.8 0-1 0.2-0.2 0.2-0.2 0.5zm13.1 1.6q-0.3 0-0.4-0.1-0.1-0.1-0.4-0.5l-1.8-2.8q-0.1-0.1-0.2-0.2-0.2 0-0.3 0h-0.2q-0.2 0-0.3 0.1-0.1 0.1-0.1 0.3v7.7h0.1v-7.7q0-0.1 0.1-0.2 0-0.1 0.2-0.1h0.2q0.1 0 0.2 0.1 0.1 0 0.2 0.1l1.8 2.8q0.3 0.4 0.4 0.5 0.1 0.2 0.5 0.2 0.3 0 0.4-0.2 0.2-0.1 0.5-0.5l1.8-2.8q0.1-0.1 0.2-0.1 0-0.1 0.1-0.1h0.3q0.1 0 0.2 0.1 0 0.1 0 0.2v7.7h0.2v-7.7q0-0.2-0.1-0.3-0.1-0.1-0.3-0.1h-0.3q-0.1 0-0.2 0-0.1 0.1-0.2 0.2l-1.9 2.8q-0.2 0.4-0.3 0.5-0.2 0.1-0.4 0.1zm-2.5 5.8h-2.3q-0.3 0-0.4-0.1-0.1-0.1-0.1-0.4v-9.7q0-0.3 0.1-0.4 0.1-0.2 0.4-0.2h2.4q0.3 0 0.4 0.1 0.2 0.1 0.3 0.4l1.4 2.4q0.1 0.2 0.1 0.2 0.1 0.1 0.2 0.1h0.1q0.1 0 0.1-0.1 0.1 0 0.2-0.2l1.3-2.4q0.1-0.3 0.3-0.4 0.1-0.1 0.4-0.1h2.4q0.3 0 0.4 0.2 0.2 0.1 0.2 0.4v9.7q0 0.3-0.2 0.4-0.1 0.1-0.4 0.1h-2.3q-0.3 0-0.4-0.1-0.1-0.1-0.1-0.4v-5.3l-0.9 1.6q-0.2 0.3-0.3 0.4-0.2 0.1-0.5 0.1h-0.6q-0.3 0-0.5-0.1-0.2-0.1-0.3-0.4l-0.9-1.6v5.3q0 0.3-0.1 0.4-0.1 0.1-0.4 0.1zm19.1-10.2v7.4q0 0.7-0.2 1.2-0.2 0.6-0.7 1-0.5 0.4-1.4 0.6-0.9 0.2-2.3 0.2-1.4 0-2.3-0.2-0.9-0.2-1.4-0.6-0.5-0.4-0.8-1-0.1-0.5-0.1-1.2v-7.4q0-0.3 0.1-0.4 0.1-0.2 0.4-0.2h2.3q0.3 0 0.5 0.2 0.1 0.1 0.1 0.4v6.8q0 0.3 0.2 0.5 0.2 0.2 1 0.2 0.8 0 1-0.2 0.3-0.2 0.3-0.5v-6.8q0-0.3 0.1-0.4 0.1-0.2 0.4-0.2h2.3q0.3 0 0.4 0.2 0.1 0.1 0.1 0.4zm-7.4 0.8h-0.2v6.2q0 0.9 0.6 1.5 0.6 0.6 2.4 0.6 1.8 0 2.4-0.6 0.6-0.6 0.6-1.5v-6.2h-0.1v6.2q0 0.9-0.6 1.4-0.6 0.5-2.3 0.5-1.7 0-2.3-0.5-0.5-0.5-0.5-1.4zm16.9 6.4l-5.5-6.3q-0.1 0-0.1-0.1-0.1 0-0.1 0-0.1 0-0.1 0.1-0.1 0-0.1 0.1v7.9h0.1v-7.9q0 0 0 0 0.1 0 0.1 0 0 0 0 0 0 0 0 0l5.7 6.4v1.5h0.2v-8.1h-0.2zm-4.7 3.1h-2.2q-0.3 0-0.5-0.1-0.1-0.1-0.1-0.4v-9.7q0-0.3 0.1-0.4 0.2-0.2 0.5-0.2h1.5q0.3 0 0.5 0.1 0.2 0.1 0.4 0.4l2.9 3.3v-3.2q0-0.3 0.1-0.4 0.2-0.2 0.5-0.2h2.2q0.3 0 0.4 0.2 0.1 0.1 0.1 0.4v9.7q0 0.3-0.1 0.4-0.1 0.1-0.4 0.1h-2.2q-0.3 0-0.5-0.1-0.1-0.1-0.1-0.4v-1.8l-2.6-3.1v4.9q0 0.3-0.1 0.4-0.1 0.1-0.4 0.1zm15.2 0h-6.4q-0.3 0-0.4-0.1-0.1-0.1-0.1-0.4v-1.8q0-0.3 0.1-0.4 0.1-0.1 0.4-0.1h1.5v-5.1h-1.5q-0.3 0-0.4-0.1-0.1-0.1-0.1-0.4v-1.8q0-0.3 0.1-0.4 0.1-0.2 0.4-0.2h6.4q0.3 0 0.4 0.2 0.1 0.1 0.1 0.4v1.8q0 0.3-0.1 0.4-0.1 0.1-0.4 0.1h-1.5v5.1h1.5q0.3 0 0.4 0.1 0.1 0.1 0.1 0.4v1.8q0 0.3-0.1 0.4-0.1 0.1-0.4 0.1zm-5.6-1.3h4.8v-0.2h-2.3v-7.8h2.3v-0.1h-4.8v0.1h2.3v7.8h-2.3zm15.2 1.4h-3.7q-1.9 0-2.8-0.8-0.9-0.7-0.9-2.3v-4.6q0-1.6 0.9-2.3 0.9-0.8 2.8-0.8h3.7q0.3 0 0.4 0.1 0.1 0.2 0.1 0.4v1.9q0 0.2-0.1 0.4-0.1 0.1-0.4 0.1h-3q-0.5 0-0.7 0.2-0.3 0.2-0.3 0.5v3.6q0 0.4 0.3 0.6 0.2 0.1 0.7 0.1h3q0.3 0 0.4 0.2 0.1 0.1 0.1 0.4v1.8q0 0.2-0.1 0.4-0.1 0.1-0.4 0.1zm-0.9-1.4v-0.1h-2.5q-1.3 0-1.8-0.4-0.4-0.4-0.4-1.4v-4.2q0-1 0.5-1.4 0.4-0.4 1.7-0.4h2.5v-0.2h-2.5q-1.4 0-1.9 0.5-0.5 0.4-0.5 1.5v4.2q0 1 0.5 1.5 0.5 0.4 1.9 0.4zm4.6-2.7v-0.4q0-0.5 0.1-0.8 0.1-0.3 0.2-0.6l0.9-2.5q0.2-0.4 0.3-0.6 0.2-0.3 0.7-0.3h1.4q0.5 0 0.6 0.3 0.2 0.2 0.4 0.6l1 2.5q0.1 0.3 0.2 0.6 0.1 0.3 0.1 0.8v0.4zm2.4-3.6l-0.7 2.3h2.3l-0.7-2.3q0-0.1-0.1-0.1-0.1-0.1-0.2-0.1h-0.3q-0.1 0-0.2 0.1-0.1 0-0.1 0.1zm3.4 3.8v2.5h0.2v-3.1q0-0.5-0.1-0.8-0.1-0.4-0.2-0.7l-1-2.4q-0.2-0.5-0.4-0.8-0.2-0.3-0.7-0.3h-1.5q-0.5 0-0.7 0.3-0.2 0.3-0.4 0.7l-0.9 2.5q-0.1 0.3-0.2 0.7-0.1 0.3-0.1 0.8v3.1h0.2v-2.5zm-4.3 1.3v2.1q0 0.2-0.2 0.4-0.1 0.1-0.4 0.1h-2.2q-0.3 0-0.4-0.1-0.1-0.2-0.1-0.4v-4q0-0.5 0.1-1 0.2-0.6 0.5-1.4l1.3-3.4q0.1-0.3 0.2-0.4 0.2-0.1 0.5-0.1h4.1q0.3 0 0.4 0.1 0.2 0.1 0.3 0.4l1.3 3.4q0.3 0.8 0.5 1.4 0.1 0.5 0.1 1v4q0 0.2-0.1 0.4-0.1 0.1-0.4 0.1h-2.3q-0.3 0-0.4-0.1-0.2-0.2-0.2-0.4v-2.1zm13.9 2.6l-0.5 1.4q-0.1 0.3-0.2 0.4-0.2 0.1-0.5 0.1h-1.9q-0.4 0-0.4-0.2-0.1-0.1 0-0.4l0.4-1.3q-1.5-0.1-2.3-0.9-0.8-0.7-0.8-2.2v-4.6q0-1.6 0.9-2.3 1-0.8 2.8-0.8h3.7q0.3 0 0.4 0.1 0.1 0.2 0.1 0.4v1.9q0 0.2-0.1 0.4-0.1 0.1-0.4 0.1h-3q-0.5 0-0.7 0.2-0.2 0.2-0.2 0.5v3.6q0 0.4 0.2 0.6 0.2 0.1 0.7 0.1h3q0.3 0 0.4 0.2 0.1 0.1 0.1 0.4v1.8q0 0.2-0.1 0.4-0.1 0.1-0.4 0.1zm-1.1-1.4l-0.7 1.9h0.1l0.7-1.9h1.4v-0.1h-2.6q-1.3 0-1.8-0.4-0.4-0.4-0.4-1.4v-4.2q0-1 0.5-1.4 0.4-0.4 1.7-0.4h2.6v-0.2h-2.6q-1.4 0-1.9 0.5-0.5 0.4-0.5 1.5v4.2q0 1 0.5 1.5 0.5 0.4 1.9 0.4zm6.1-2.7v-0.4q0-0.5 0.1-0.8 0-0.3 0.1-0.6l1-2.5q0.2-0.4 0.3-0.6 0.2-0.3 0.7-0.3h1.4q0.5 0 0.6 0.3 0.2 0.2 0.4 0.6l1 2.5q0.1 0.3 0.2 0.6 0.1 0.3 0.1 0.8v0.4zm2.4-3.6l-0.7 2.3h2.3l-0.7-2.3q-0.1-0.1-0.1-0.1-0.1-0.1-0.2-0.1h-0.4q0 0-0.1 0.1-0.1 0-0.1 0.1zm3.4 3.8v2.5h0.2v-3.1q0-0.5-0.1-0.8-0.1-0.4-0.2-0.7l-1-2.4q-0.2-0.5-0.4-0.8-0.2-0.3-0.7-0.3h-1.5q-0.5 0-0.7 0.3-0.2 0.3-0.4 0.7l-0.9 2.5q-0.2 0.3-0.2 0.7-0.1 0.3-0.1 0.8v3.1h0.2v-2.5zm-4.3 1.3v2.1q0 0.2-0.2 0.4-0.1 0.1-0.4 0.1h-2.2q-0.3 0-0.4-0.1-0.1-0.2-0.1-0.4v-4q0-0.5 0.1-1 0.2-0.6 0.5-1.4l1.3-3.4q0-0.3 0.2-0.4 0.2-0.1 0.5-0.1h4.1q0.2 0 0.4 0.1 0.2 0.1 0.3 0.4l1.3 3.4q0.3 0.8 0.4 1.4 0.2 0.5 0.2 1v4q0 0.2-0.1 0.4-0.2 0.1-0.4 0.1h-2.3q-0.3 0-0.5-0.1-0.1-0.2-0.1-0.4v-2.1zm1.6-8.8l-0.2-0.1h-0.4q-0.5-0.1-0.8-0.1-0.2 0-0.5 0-0.2 0-0.4 0.1-0.2 0-0.5 0.1-0.3 0.1-0.4 0-0.2-0.1-0.2-0.4v-1.5q0-0.3 0.2-0.4 0.1-0.1 0.4-0.2 0.3-0.1 0.6-0.2 0.2 0 0.4 0 0.3 0 0.6 0 0.3 0.1 0.7 0.1h0.3l0.3 0.1q0.5 0.1 0.8 0.1 0.3 0 0.5 0 0.2 0 0.4-0.1 0.2 0 0.6-0.1 0.2-0.1 0.4 0 0.1 0.1 0.1 0.4v1.5q0 0.3-0.1 0.4-0.2 0.1-0.4 0.2-0.4 0.1-0.6 0.2-0.3 0-0.5 0-0.3 0-0.6 0-0.2-0.1-0.7-0.1zm1.6-1.1v-0.1q-0.3 0-0.7 0-0.3 0-0.9-0.1l-0.2-0.1h-0.4q-0.5-0.1-0.9-0.1-0.3 0-0.5 0v0.2q0.2-0.1 0.5-0.1 0.3 0 0.8 0.1l0.5 0.1h0.2q0.6 0.1 0.9 0.1 0.4 0.1 0.7 0zm13.8 4.5v5.2q0 0.7-0.2 1.2-0.2 0.6-0.7 1-0.5 0.4-1.4 0.6-0.9 0.2-2.3 0.2-1.4 0-2.3-0.2-0.9-0.2-1.5-0.6-0.5-0.4-0.7-1-0.2-0.5-0.2-1.2v-5.2q0-0.6 0.2-1.2 0.2-0.6 0.7-1 0.6-0.4 1.5-0.6 0.9-0.2 2.3-0.2 1.4 0 2.3 0.2 0.9 0.2 1.4 0.6 0.5 0.4 0.7 1 0.2 0.6 0.2 1.2zm-1.6 4.8v-4.4q0-0.9-0.6-1.5-0.7-0.5-2.4-0.5-1.8 0-2.4 0.5-0.6 0.6-0.6 1.5v4.4q0 0.9 0.6 1.5 0.6 0.5 2.4 0.5 1.7 0 2.4-0.5 0.6-0.6 0.6-1.5zm-5.9 0v-4.4q0-0.8 0.6-1.4 0.6-0.5 2.3-0.5 1.6 0 2.2 0.5 0.7 0.6 0.7 1.4v4.4q0 0.9-0.7 1.4-0.6 0.5-2.2 0.5-1.7 0-2.3-0.5-0.6-0.5-0.6-1.4zm1.6-4.2v4q0 0.3 0.3 0.5 0.2 0.2 1 0.2 0.8 0 1-0.2 0.3-0.2 0.3-0.5v-4q0-0.3-0.3-0.5-0.2-0.2-1-0.2-0.8 0-1 0.2-0.3 0.2-0.3 0.5zm17.9 7.4h-6.4q-0.3 0-0.4-0.1-0.1-0.2-0.1-0.4v-1.8q0-0.3 0.1-0.4 0.1-0.2 0.4-0.2h1.5v-5h-1.5q-0.3 0-0.4-0.1-0.1-0.2-0.1-0.4v-1.9q0-0.2 0.1-0.4 0.1-0.1 0.4-0.1h6.4q0.3 0 0.4 0.1 0.2 0.2 0.2 0.4v1.9q0 0.2-0.2 0.4-0.1 0.1-0.4 0.1h-1.4v5h1.4q0.3 0 0.4 0.2 0.2 0.1 0.2 0.4v1.8q0 0.2-0.2 0.4-0.1 0.1-0.4 0.1zm-5.6-1.4h4.8v-0.1h-2.3v-7.8h2.3v-0.2h-4.8v0.2h2.4v7.8h-2.4zm15.5-1.8l-5.5-6.2q-0.1-0.1-0.1-0.1-0.1 0-0.1 0-0.1 0-0.2 0 0 0.1 0 0.2v7.9h0.1v-7.9q0 0 0 0 0-0.1 0.1-0.1 0 0 0 0.1 0 0 0 0l5.7 6.4v1.5h0.2v-8.1h-0.2zm-4.7 3.1h-2.3q-0.2 0-0.4-0.1-0.1-0.1-0.1-0.4v-9.7q0-0.3 0.1-0.4 0.2-0.2 0.4-0.2h1.6q0.3 0 0.5 0.1 0.2 0.1 0.4 0.3l2.9 3.4v-3.2q0-0.3 0.1-0.4 0.2-0.2 0.4-0.2h2.3q0.3 0 0.4 0.2 0.1 0.1 0.1 0.4v9.7q0 0.3-0.1 0.4-0.1 0.1-0.4 0.1h-2.3q-0.2 0-0.4-0.1-0.1-0.1-0.1-0.4v-1.9l-2.6-3.1v5q0 0.3-0.1 0.4-0.1 0.1-0.4 0.1zm13.6 0h-2.4q-0.3 0-0.5-0.1-0.1-0.1-0.1-0.4v-7.4h-2.2q-0.3 0-0.4-0.1-0.1-0.1-0.1-0.4v-1.8q0-0.3 0.1-0.4 0.1-0.2 0.4-0.2h7.9q0.3 0 0.4 0.2 0.2 0.1 0.2 0.4v1.8q0 0.3-0.2 0.4-0.1 0.1-0.4 0.1h-2.2v7.4q0 0.3-0.1 0.4-0.1 0.1-0.4 0.1zm-1.3-9.3v8h0.2v-8h3v-0.1h-6.3v0.1zm13.6 9.3h-7q-0.3 0-0.4-0.1-0.1-0.1-0.1-0.4v-9.7q0-0.3 0.1-0.4 0.1-0.2 0.4-0.2h7q0.2 0 0.4 0.2 0.1 0.1 0.1 0.4v1.7q0 0.3-0.1 0.4-0.2 0.2-0.4 0.2h-4.2v1.1h2.9q0.3 0 0.5 0.1 0.1 0.2 0.1 0.4v1.7q0 0.2-0.1 0.4-0.2 0.1-0.5 0.1h-2.9v1.3h4.2q0.2 0 0.4 0.1 0.1 0.1 0.1 0.4v1.8q0 0.3-0.1 0.4-0.2 0.1-0.4 0.1zm-0.8-1.3v-0.2h-5v-3.9h3.7v-0.1h-3.7v-3.8h5v-0.1h-5.1v8.1zm4.9-8h3.3q0.8 0 1.1 0.5 0.4 0.4 0.4 1.1v1q0 0.9-0.3 1.3-0.3 0.5-1.2 0.5h-3.3zm2.7 1.2h-1.1v1.9h1.1q0.4 0 0.6-0.2 0.1-0.2 0.1-0.5v-0.5q0-0.3-0.1-0.5-0.2-0.2-0.6-0.2zm-2.9 6.7h0.2v-3.5h4.2q0.9 0 1.3 0.4 0.4 0.4 0.4 1.1v2h0.1v-2q0-0.8-0.4-1.2-0.5-0.4-1.4-0.4h-0.1q0.5-0.2 0.7-0.6 0.2-0.5 0.2-1.2v-1q0-0.7-0.5-1.2-0.4-0.5-1.2-0.5h-3.5zm1.3 1.4h-2.3q-0.3 0-0.5-0.2-0.1-0.1-0.1-0.4v-9.7q0-0.3 0.1-0.4 0.2-0.1 0.5-0.1h5q1.6 0 2.3 0.7 0.6 0.6 0.6 1.8v0.6q0 0.7-0.2 1.1-0.2 0.5-0.6 0.7 0.8 0 1.3 0.6 0.5 0.6 0.5 1.5v3.2q0 0.3-0.2 0.4-0.1 0.2-0.4 0.2h-2.3q-0.3 0-0.4-0.2-0.1-0.1-0.1-0.4v-2.3q0-0.3-0.2-0.5-0.1-0.1-0.4-0.1h-2.1v2.9q0 0.3-0.1 0.4-0.1 0.2-0.4 0.2zm15.8-3.2l-5.6-6.2q0-0.1-0.1-0.1 0 0-0.1 0 0 0-0.1 0-0.1 0.1-0.1 0.2v7.9h0.2v-7.9q0 0 0 0 0 0 0 0 0 0 0 0 0.1 0 0.1 0l5.7 6.4v1.5h0.1v-8.1h-0.1zm-4.7 3.1h-2.3q-0.3 0-0.4-0.1-0.1-0.1-0.1-0.4v-9.7q0-0.3 0.1-0.4 0.1-0.2 0.4-0.2h1.6q0.2 0 0.4 0.1 0.3 0.1 0.4 0.3l3 3.4v-3.2q0-0.3 0.1-0.4 0.1-0.2 0.4-0.2h2.2q0.3 0 0.5 0.2 0.1 0.1 0.1 0.4v9.7q0 0.3-0.1 0.4-0.2 0.1-0.5 0.1h-2.2q-0.3 0-0.4-0.1-0.1-0.1-0.1-0.4v-1.9l-2.6-3.1v5q0 0.3-0.1 0.4-0.2 0.1-0.4 0.1zm10-4.1v-0.4q0-0.4 0-0.8 0.1-0.3 0.2-0.6l1-2.5q0.1-0.4 0.3-0.6 0.2-0.3 0.6-0.3h1.5q0.4 0 0.6 0.3 0.2 0.2 0.3 0.6l1.1 2.5q0.1 0.3 0.1 0.6 0.1 0.4 0.1 0.8v0.4zm2.4-3.5l-0.7 2.3h2.4l-0.7-2.3q-0.1-0.2-0.2-0.2 0-0.1-0.1-0.1h-0.4q-0.1 0-0.2 0.1 0 0-0.1 0.2zm3.5 3.7v2.6h0.1v-3.2q0-0.4-0.1-0.8 0-0.3-0.1-0.7l-1.1-2.4q-0.1-0.5-0.4-0.7-0.2-0.3-0.6-0.3h-1.5q-0.5 0-0.7 0.3-0.2 0.2-0.4 0.7l-1 2.4q-0.1 0.4-0.2 0.7 0 0.4 0 0.8v3.2h0.1v-2.6zm-4.3 1.3v2.1q0 0.3-0.1 0.4-0.1 0.1-0.4 0.1h-2.2q-0.3 0-0.4-0.1-0.2-0.1-0.2-0.4v-4q0-0.4 0.2-1 0.1-0.6 0.4-1.4l1.3-3.4q0.1-0.2 0.3-0.4 0.2-0.1 0.5-0.1h4q0.3 0 0.5 0.1 0.2 0.2 0.3 0.4l1.3 3.4q0.3 0.8 0.4 1.4 0.2 0.6 0.2 1v4q0 0.3-0.2 0.4-0.1 0.1-0.4 0.1h-2.2q-0.3 0-0.5-0.1-0.1-0.1-0.1-0.4v-2.1z"/>
	<path id="Conect@r comunicação interna" class="s1" aria-label="Conect@r
comunicação interna"  d="m247.5 59.5h-9.3q-5.5 0-9-0.9-3.6-0.9-5.7-2.5-2-1.5-2.8-3.7-0.8-2.3-0.8-4.9v-20.1q0-2.7 0.8-4.9 0.8-2.3 2.8-3.9 2.1-1.6 5.7-2.5 3.5-0.8 9-0.8 5.5 0 9.1 0.8 3.6 0.9 5.6 2.5 2 1.6 2.8 3.9 0.8 2.2 0.8 4.9v12.7q0 2.3-0.4 4.1-0.4 1.8-1.7 3.2-1.1 1.2-3.3 2-2.1 0.7-5.6 0.7h-9.2q-5 0-6.8-2-1.9-2-1.9-5.2v-9.4q0-3.2 1.9-5.2 1.8-2 6.8-2h11q0.6 0 0.9 0.3 0.4 0.3 0.4 1v17.1q1.9 0 2.4-1.3 0.6-1.2 0.6-3.2v-13q0-1.6-0.6-2.9-0.6-1.4-2-2.3-1.5-1-4.2-1.5-2.6-0.5-6.6-0.5-4 0-6.6 0.5-2.6 0.5-4.2 1.5-1.4 0.9-2 2.3-0.6 1.3-0.6 2.9v20.4q0 1.6 0.6 2.9 0.6 1.4 2 2.3 1.6 0.9 4.2 1.5 2.6 0.5 6.6 0.5h9.3q1 0 1.3 0.3 0.4 0.4 0.4 1.3v1.4q0 0.9-0.4 1.3-0.3 0.4-1.3 0.4zm-9.3-2h8.6v-0.5h-8.6q-5.1 0-8.2-0.8-3.1-0.8-4.8-2-1.6-1.4-2.1-3-0.5-1.7-0.5-3.5v-20.5q0-1.9 0.5-3.6 0.6-1.7 2.2-2.9 1.7-1.3 4.7-2.1 3.1-0.7 8.2-0.7 5.1 0 8.2 0.7 3.1 0.8 4.7 2.1 1.7 1.2 2.2 2.9 0.5 1.7 0.5 3.6v13q0 3.4-1.2 5-1.2 1.5-4 1.5h-3.8v-17.5h-7q-2.4 0-3.7 0.4-1.3 0.5-2 1.2-0.5 0.7-0.6 1.6-0.1 0.9-0.1 1.9v7.9q0 2.7 0.9 3.8 1 1.2 3.4 1.2h12.9q3.1 0 4.4-1.7 1.3-1.6 1.3-5.3v-13q0-1.9-0.5-3.7-0.5-1.8-2.2-3.1-1.6-1.4-4.8-2.2-3.2-0.8-8.6-0.8-5.3 0-8.5 0.8-3.2 0.8-4.9 2.2-1.7 1.3-2.2 3.1-0.5 1.8-0.5 3.7v20.5q0 1.9 0.5 3.6 0.5 1.8 2.2 3.2 1.7 1.3 4.9 2.2 3.2 0.8 8.5 0.8zm6.2-10.8h-8.7q-2.1 0-3-1.1-0.8-1-0.8-3.4v-7.9q0-0.9 0.1-1.7 0.1-0.9 0.6-1.5 0.6-0.6 1.8-1 1.2-0.4 3.4-0.4h6.6zm-7.1-3.3h3.3v-10.8h-2.8q-1.4 0-1.8 0.5-0.4 0.6-0.4 1.2v7.4q0 0.8 0.4 1.2 0.3 0.5 1.3 0.5z"/>
</svg>