<svg version="1.2" xmlns="http://www.w3.org/2000/svg" viewBox="0 0 210 90" width="210" height="90">
	<title>Novo Projeto</title>
	<style>
		.s0 { fill: #ffffff } 
		.s1 { fill: #ffff00 } 
	</style>
	<path id="Conect@r" class="s0" aria-label="Conect@r"  d="m35.5 56h-12.7q-6.5 0-9.7-2.6-3.1-2.6-3.1-8v-16.2q0-5.4 3.1-8 3.2-2.6 9.7-2.6h12.7q1 0 1.4 0.4 0.5 0.4 0.5 1.4v6.3q0 1-0.5 1.5-0.4 0.4-1.4 0.4h-10.5q-1.6 0-2.3 0.7-0.8 0.6-0.8 1.9v12.4q0 1.3 0.8 1.9 0.7 0.6 2.3 0.6h10.5q1 0 1.4 0.4 0.5 0.5 0.5 1.4v6.2q0 1-0.5 1.5-0.4 0.4-1.4 0.4zm-2.9-4.7v-0.5h-8.6q-4.7 0-6.3-1.4-1.5-1.4-1.5-4.8v-14.5q0-3.5 1.6-4.9 1.6-1.4 6.2-1.4h8.6v-0.6h-8.6q-5 0-6.7 1.6-1.7 1.6-1.7 5.3v14.5q0 3.6 1.6 5.2 1.7 1.5 6.8 1.5zm28.4-12.3v11q0 1.4-0.4 2.6-0.4 1.2-1.5 2.1-1.1 0.8-3.1 1.3-1.9 0.5-4.9 0.5-3 0-4.9-0.5-2-0.5-3.1-1.3-1.1-0.9-1.5-2.1-0.4-1.2-0.4-2.6v-11q0-1.4 0.4-2.6 0.4-1.2 1.5-2.1 1.1-0.9 3.1-1.3 1.9-0.5 4.9-0.5 3 0 4.9 0.5 2 0.4 3.1 1.3 1.1 0.9 1.5 2.1 0.4 1.2 0.4 2.6zm-3.4 10.2v-9.4q0-1.9-1.4-3.1-1.4-1.2-5.1-1.2-3.8 0-5.1 1.2-1.4 1.2-1.4 3.1v9.4q0 1.9 1.4 3.2 1.3 1.1 5.1 1.1 3.7 0 5.1-1.1 1.4-1.3 1.4-3.2zm-12.7 0v-9.4q0-1.8 1.3-2.9 1.3-1.1 4.9-1.1 3.5 0 4.8 1.1 1.3 1.1 1.3 2.9v9.4q0 1.8-1.3 2.9-1.3 1.1-4.8 1.1-3.6 0-4.9-1.1-1.3-1.1-1.3-2.9zm3.5-9v8.6q0 0.6 0.5 1.1 0.5 0.4 2.2 0.4 1.7 0 2.2-0.4 0.5-0.5 0.5-1.1v-8.6q0-0.6-0.5-1-0.5-0.5-2.2-0.5-1.7 0-2.2 0.5-0.5 0.4-0.5 1zm32.7 9.1l-11.8-13.2q-0.1-0.2-0.2-0.2-0.1-0.1-0.3-0.1-0.1 0-0.2 0.1-0.1 0.1-0.1 0.3v16.9h0.3v-16.8q0-0.1 0-0.1 0 0 0 0 0.1 0 0.1 0 0.1 0 0.1 0.1l12.1 13.5v3.3h0.3v-17.3h-0.3zm-10 6.7h-4.8q-0.7 0-0.9-0.3-0.3-0.2-0.3-0.9v-20.7q0-0.6 0.3-0.9 0.2-0.2 0.9-0.2h3.3q0.6 0 1 0.1 0.5 0.2 0.9 0.7l6.2 7.1v-6.8q0-0.6 0.2-0.9 0.3-0.2 0.9-0.2h4.8q0.6 0 0.9 0.2 0.3 0.3 0.3 0.9v20.7q0 0.7-0.3 0.9-0.3 0.3-0.9 0.3h-4.8q-0.6 0-0.9-0.3-0.2-0.2-0.2-0.9v-3.9l-5.5-6.6v10.5q0 0.7-0.3 0.9-0.2 0.3-0.8 0.3zm34.1 0h-14.8q-0.7 0-0.9-0.3-0.3-0.2-0.3-0.9v-20.7q0-0.6 0.3-0.9 0.2-0.2 0.9-0.2h14.8q0.6 0 0.9 0.2 0.3 0.3 0.3 0.9v3.8q0 0.6-0.3 0.8-0.3 0.3-0.9 0.3h-8.8v2.5h6.2q0.6 0 0.9 0.3 0.3 0.2 0.3 0.8v3.4q0 0.7-0.3 0.9-0.3 0.3-0.9 0.3h-6.2v2.7h8.8q0.6 0 0.9 0.3 0.3 0.3 0.3 0.9v3.7q0 0.7-0.3 0.9-0.3 0.3-0.9 0.3zm-1.7-2.9v-0.3h-10.5v-8.3h7.9v-0.3h-7.9v-8h10.5v-0.4h-10.8v17.3zm21.8 2.9h-7.8q-4 0-5.9-1.6-2-1.6-2-4.9v-10q0-3.3 2-4.9 1.9-1.6 5.9-1.6h7.8q0.6 0 0.9 0.2 0.3 0.3 0.3 0.9v3.9q0 0.6-0.3 0.9-0.3 0.2-0.9 0.2h-6.4q-1 0-1.5 0.4-0.5 0.4-0.5 1.2v7.6q0 0.8 0.5 1.2 0.5 0.4 1.5 0.4h6.4q0.6 0 0.9 0.3 0.3 0.2 0.3 0.8v3.8q0 0.7-0.3 0.9-0.3 0.3-0.9 0.3zm-1.7-2.9v-0.3h-5.4q-2.9 0-3.8-0.9-1-0.8-1-2.9v-9q0-2.1 1-2.9 1-0.9 3.8-0.9h5.4v-0.4h-5.4q-3.1 0-4.1 1-1 1-1 3.2v9q0 2.2 1 3.2 1 0.9 4.1 0.9zm17.4 2.9h-5.2q-0.6 0-0.9-0.3-0.2-0.2-0.2-0.9v-15.7h-4.7q-0.6 0-0.9-0.2-0.3-0.3-0.3-0.9v-3.9q0-0.6 0.3-0.9 0.3-0.2 0.9-0.2h16.9q0.6 0 0.8 0.2 0.3 0.3 0.3 0.9v3.9q0 0.6-0.3 0.9-0.2 0.2-0.8 0.2h-4.7v15.7q0 0.7-0.3 0.9-0.3 0.3-0.9 0.3zm-2.7-19.8v16.9h0.3v-16.9h6.5v-0.4h-13.4v0.4zm44.4 0h7q1.7 0 2.5 0.9 0.8 0.9 0.8 2.4v2.2q0 1.8-0.7 2.7-0.7 1-2.6 1h-7zm5.8 2.6h-2.4v4.1h2.4q0.9 0 1.2-0.5 0.3-0.4 0.3-1v-1.1q0-0.7-0.3-1.1-0.3-0.4-1.2-0.4zm-6.1 14.4h0.3v-7.5h9q1.9 0 2.7 0.8 0.9 0.8 0.9 2.4v4.3h0.3v-4.3q0-1.7-0.9-2.6-1-0.8-3-0.8h-0.3q1.1-0.4 1.5-1.3 0.4-1 0.4-2.5v-2.2q0-1.5-0.9-2.6-0.9-1-2.7-1h-7.3zm2.6 2.9h-4.9q-0.6 0-0.9-0.3-0.3-0.3-0.3-0.9v-20.7q0-0.6 0.3-0.9 0.3-0.3 0.9-0.3h10.6q3.6 0 4.9 1.5 1.4 1.5 1.4 3.9v1.4q0 1.4-0.4 2.3-0.4 1-1.4 1.4 1.8 0.2 2.8 1.4 1.1 1.2 1.1 3.2v6.8q0 0.6-0.3 0.9-0.2 0.3-0.8 0.3h-5q-0.6 0-0.9-0.3-0.3-0.3-0.3-0.9v-4.9q0-0.7-0.2-1-0.3-0.4-1-0.4h-4.5v6.3q0 0.6-0.2 0.9-0.3 0.3-0.9 0.3z"/>
	<path id="Conect@r" class="s1" aria-label="Conect@r"  d="m168.9 58.9h-6.1q-3.6 0-5.9-0.6-2.3-0.5-3.7-1.6-1.3-1-1.8-2.4-0.5-1.5-0.5-3.2v-13.1q0-1.8 0.5-3.2 0.5-1.5 1.8-2.5 1.4-1.1 3.7-1.7 2.3-0.6 5.9-0.6 3.6 0 5.9 0.6 2.4 0.6 3.7 1.7 1.3 1 1.8 2.5 0.6 1.4 0.6 3.2v8.3q0 1.4-0.3 2.7-0.3 1.1-1.1 2-0.8 0.8-2.2 1.3-1.4 0.5-3.6 0.5h-6.1q-3.2 0-4.4-1.3-1.2-1.3-1.2-3.4v-6.1q0-2.2 1.2-3.4 1.2-1.4 4.4-1.4h7.2q0.5 0 0.6 0.3 0.3 0.2 0.3 0.6v11.1q1.2 0 1.6-0.8 0.4-0.8 0.4-2.1v-8.5q0-1-0.4-1.9-0.4-0.9-1.4-1.5-0.9-0.6-2.7-0.9-1.7-0.4-4.3-0.4-2.6 0-4.3 0.4-1.7 0.3-2.7 0.9-1 0.6-1.4 1.5-0.3 0.9-0.3 1.9v13.4q0 1 0.3 1.9 0.4 0.9 1.4 1.5 1 0.6 2.7 0.9 1.7 0.3 4.3 0.3h6.1q0.6 0 0.8 0.3 0.3 0.2 0.3 0.8v0.9q0 0.6-0.3 0.9-0.2 0.2-0.8 0.2zm-6.1-1.3h5.6v-0.3h-5.6q-3.3 0-5.4-0.5-2-0.5-3.1-1.3-1-0.9-1.4-2-0.3-1.1-0.3-2.3v-13.4q0-1.2 0.4-2.3 0.3-1.1 1.4-1.9 1.1-0.9 3.1-1.3 2-0.6 5.3-0.6 3.3 0 5.4 0.6 2 0.4 3 1.3 1.1 0.8 1.4 1.9 0.4 1.1 0.4 2.3v8.5q0 2.2-0.8 3.3-0.8 1-2.6 1h-2.5v-11.5h-4.6q-1.5 0-2.4 0.3-0.8 0.3-1.2 0.8-0.4 0.4-0.5 1-0.1 0.7-0.1 1.3v5.1q0 1.8 0.7 2.5 0.6 0.8 2.2 0.8h8.4q2 0 2.9-1.1 0.8-1.1 0.8-3.5v-8.5q0-1.2-0.3-2.4-0.4-1.2-1.4-2-1.1-0.9-3.2-1.4-2.1-0.6-5.6-0.6-3.5 0-5.6 0.6-2.1 0.5-3.1 1.4-1.1 0.8-1.5 2-0.3 1.2-0.3 2.4v13.4q0 1.2 0.3 2.4 0.4 1.2 1.5 2 1 0.9 3.1 1.5 2.1 0.5 5.6 0.5zm4-7h-5.6q-1.4 0-2-0.7-0.5-0.7-0.5-2.3v-5.1q0-0.6 0-1.1 0.1-0.6 0.5-1 0.4-0.4 1.1-0.7 0.8-0.2 2.2-0.2h4.3zm-4.6-2.2h2.2v-7.1h-1.9q-0.9 0-1.1 0.4-0.3 0.4-0.3 0.8v4.8q0 0.5 0.2 0.8 0.3 0.3 0.9 0.3z"/>
</svg>