<svg version="1.2" xmlns="http://www.w3.org/2000/svg" viewBox="0 0 300 80" width="300" height="80">
	<title>Novo Projeto</title>
	<style>
		.s0 { fill: #2f09f1 } 
		.s1 { fill: #ff0000 } 
		.s2 { fill: #c24504 } 
	</style>
	<path id="Conect@r Sistema de informação" class="s0" aria-label="Conect@r
Sistema de informação"  d="m56.6 54h-12.7q-6.5 0-9.7-2.6-3.1-2.6-3.1-8v-16.2q0-5.4 3.1-8 3.2-2.6 9.7-2.6h12.7q1 0 1.4 0.4 0.5 0.4 0.5 1.4v6.3q0 1-0.5 1.5-0.4 0.4-1.4 0.4h-10.4q-1.7 0-2.4 0.7-0.8 0.6-0.8 1.9v12.4q0 1.3 0.8 1.9 0.7 0.6 2.4 0.6h10.4q1 0 1.4 0.4 0.5 0.5 0.5 1.4v6.2q0 1-0.5 1.5-0.4 0.4-1.4 0.4zm-2.9-4.7v-0.5h-8.6q-4.7 0-6.3-1.4-1.5-1.4-1.5-4.8v-14.5q0-3.5 1.6-4.9 1.6-1.4 6.2-1.4h8.6v-0.6h-8.6q-5 0-6.7 1.6-1.7 1.6-1.7 5.3v14.5q0 3.6 1.7 5.2 1.6 1.5 6.7 1.5zm35.2-17.6v14.4q0 1.9-0.5 3.5-0.6 1.5-2.1 2.7-1.4 1.1-4 1.7-2.5 0.6-6.4 0.6-3.9 0-6.4-0.6-2.6-0.6-4.1-1.7-1.4-1.2-2-2.7-0.5-1.6-0.5-3.5v-14.4q0-1.9 0.5-3.4 0.6-1.6 2-2.8 1.5-1.1 4.1-1.7 2.5-0.7 6.4-0.7 3.9 0 6.4 0.7 2.6 0.6 4 1.7 1.5 1.2 2.1 2.8 0.5 1.5 0.5 3.4zm-4.5 13.4v-12.4q0-2.5-1.8-4.1-1.9-1.6-6.8-1.6-4.9 0-6.6 1.6-1.8 1.6-1.8 4.1v12.4q0 2.5 1.8 4.1 1.7 1.6 6.6 1.6 4.9 0 6.8-1.6 1.8-1.6 1.8-4.1zm-16.6 0v-12.4q0-2.3 1.7-3.8 1.7-1.4 6.3-1.4 4.7 0 6.4 1.4 1.7 1.5 1.7 3.8v12.4q0 2.3-1.7 3.8-1.7 1.4-6.4 1.4-4.6 0-6.3-1.4-1.7-1.5-1.7-3.8zm4.6-11.8v11.2q0 0.9 0.6 1.5 0.7 0.5 2.9 0.5 2.3 0 2.9-0.5 0.6-0.6 0.6-1.5v-11.2q0-0.8-0.6-1.4-0.6-0.6-2.9-0.6-2.2 0-2.9 0.6-0.6 0.6-0.6 1.4zm42.9 12l-15.5-17.4q-0.2-0.2-0.3-0.3-0.1-0.1-0.3-0.1-0.2 0-0.3 0.1-0.2 0.1-0.2 0.4v22.2h0.4v-22.1q0-0.1 0-0.1 0 0 0.1 0 0 0 0.1 0 0.1 0 0.1 0.1l15.9 17.8v4.3h0.4v-22.7h-0.4zm-13.2 8.8h-6.3q-0.8 0-1.2-0.4-0.3-0.3-0.3-1.1v-27.3q0-0.7 0.3-1.1 0.4-0.4 1.2-0.4h4.4q0.8 0 1.3 0.3 0.6 0.2 1.1 0.9l8.2 9.3v-9q0-0.7 0.3-1.1 0.4-0.4 1.2-0.4h6.3q0.8 0 1.1 0.4 0.4 0.4 0.4 1.1v27.3q0 0.8-0.4 1.1-0.3 0.4-1.1 0.4h-6.3q-0.8 0-1.2-0.4-0.3-0.3-0.3-1.1v-5.2l-7.2-8.7v13.9q0 0.8-0.4 1.1-0.3 0.4-1.1 0.4zm44.8 0h-19.5q-0.8 0-1.2-0.4-0.3-0.3-0.3-1.1v-27.3q0-0.8 0.3-1.1 0.4-0.4 1.2-0.4h19.5q0.8 0 1.1 0.4 0.4 0.3 0.4 1.1v5q0 0.8-0.4 1.1-0.3 0.4-1.1 0.4h-11.6v3.2h8.2q0.8 0 1.1 0.4 0.4 0.3 0.4 1.1v4.5q0 0.8-0.4 1.2-0.3 0.3-1.1 0.3h-8.2v3.6h11.6q0.8 0 1.1 0.4 0.4 0.4 0.4 1.2v4.9q0 0.8-0.4 1.1-0.3 0.4-1.1 0.4zm-2.3-3.8v-0.4h-13.7v-10.9h10.3v-0.4h-10.3v-10.6h13.7v-0.4h-14.1v22.7zm28.6 3.8h-10.2q-5.3 0-7.8-2.1-2.6-2.1-2.6-6.5v-13.1q0-4.3 2.6-6.4 2.5-2.2 7.8-2.2h10.2q0.8 0 1.2 0.4 0.3 0.3 0.3 1.1v5.1q0 0.8-0.3 1.2-0.4 0.3-1.2 0.3h-8.4q-1.3 0-2 0.6-0.6 0.5-0.6 1.5v10q0 1.1 0.6 1.6 0.7 0.5 2 0.5h8.4q0.8 0 1.2 0.3 0.3 0.4 0.3 1.2v5q0 0.8-0.3 1.1-0.4 0.4-1.2 0.4zm-2.3-3.8v-0.4h-7q-3.8 0-5-1.2-1.3-1.1-1.3-3.8v-11.8q0-2.8 1.3-3.9 1.3-1.2 5-1.2h7v-0.4h-7q-4 0-5.4 1.3-1.3 1.2-1.3 4.2v11.8q0 2.9 1.3 4.1 1.3 1.3 5.4 1.3zm22.8 3.8h-6.8q-0.8 0-1.1-0.4-0.4-0.3-0.4-1.1v-20.7h-6.1q-0.8 0-1.2-0.3-0.4-0.4-0.4-1.2v-5.1q0-0.8 0.4-1.1 0.4-0.4 1.2-0.4h22.1q0.8 0 1.2 0.4 0.3 0.3 0.3 1.1v5.1q0 0.8-0.3 1.2-0.4 0.3-1.2 0.3h-6.1v20.7q0 0.8-0.4 1.1-0.4 0.4-1.2 0.4zm-3.6-26.1v22.3h0.5v-22.3h8.6v-0.4h-17.7v0.4zm58.3 0h9.1q2.3 0 3.3 1.3 1.1 1.2 1.1 3.1v2.9q0 2.4-0.9 3.6-0.9 1.3-3.5 1.3h-9.1zm7.7 3.3h-3.2v5.4h3.2q1.1 0 1.4-0.5 0.4-0.6 0.4-1.5v-1.4q0-0.8-0.4-1.4-0.3-0.6-1.4-0.6zm-8.1 18.9h0.4v-9.7h11.9q2.4 0 3.5 1 1.1 1 1.1 3.1v5.6h0.4v-5.6q0-2.2-1.2-3.3-1.3-1.2-3.8-1.2h-0.5q1.5-0.4 2-1.7 0.5-1.2 0.5-3.2v-2.9q0-2-1.2-3.4-1.1-1.3-3.6-1.3h-9.5zm3.4 3.7h-6.5q-0.8 0-1.1-0.3-0.4-0.4-0.4-1.2v-27.2q0-0.8 0.4-1.1 0.3-0.4 1.1-0.4h14q4.7 0 6.5 2 1.8 1.9 1.8 5v1.9q0 1.8-0.6 3.1-0.5 1.2-1.8 1.7 2.3 0.3 3.7 1.9 1.4 1.6 1.4 4.2v8.9q0 0.8-0.4 1.2-0.3 0.3-1.1 0.3h-6.5q-0.8 0-1.2-0.3-0.3-0.4-0.3-1.2v-6.4q0-0.9-0.4-1.3-0.3-0.5-1.2-0.5h-5.9v8.2q0 0.8-0.4 1.2-0.3 0.3-1.1 0.3z"/>
	<path id="Conect@r Sistema de informação" class="s1" aria-label="Conect@r
Sistema de informação"  d="m230.5 57.8h-8q-4.7 0-7.8-0.7-3-0.8-4.8-2.1-1.7-1.4-2.4-3.3-0.7-1.9-0.7-4.2v-17.2q0-2.3 0.7-4.2 0.7-1.9 2.4-3.3 1.8-1.4 4.8-2.1 3.1-0.8 7.8-0.8 4.7 0 7.8 0.8 3 0.7 4.8 2.1 1.7 1.4 2.4 3.3 0.7 1.9 0.7 4.2v10.9q0 2-0.4 3.6-0.3 1.5-1.4 2.6-1 1.1-2.9 1.8-1.8 0.6-4.7 0.6h-8q-4.2 0-5.8-1.7-1.6-1.7-1.6-4.4v-8.1q0-2.8 1.6-4.5 1.6-1.7 5.8-1.7h9.5q0.5 0 0.8 0.3 0.3 0.2 0.3 0.8v14.6q1.6 0 2.1-1 0.5-1.1 0.5-2.8v-11.2q0-1.3-0.5-2.4-0.5-1.2-1.8-2-1.3-0.8-3.5-1.3-2.3-0.4-5.7-0.4-3.4 0-5.7 0.4-2.2 0.5-3.5 1.3-1.3 0.8-1.8 2-0.5 1.1-0.5 2.4v17.6q0 1.3 0.5 2.5 0.5 1.1 1.8 1.9 1.3 0.8 3.5 1.3 2.3 0.4 5.7 0.4h8q0.8 0 1.1 0.3 0.3 0.3 0.3 1.1v1.2q0 0.8-0.3 1.1-0.3 0.3-1.1 0.3zm-8-1.7h7.3v-0.4h-7.3q-4.4 0-7.1-0.7-2.6-0.6-4-1.7-1.4-1.1-1.9-2.6-0.4-1.4-0.4-3v-17.6q0-1.6 0.5-3 0.4-1.5 1.8-2.5 1.4-1.1 4.1-1.8 2.6-0.6 7-0.6 4.4 0 7 0.6 2.7 0.7 4 1.8 1.5 1 1.9 2.5 0.5 1.4 0.5 3v11.2q0 2.9-1.1 4.3-1 1.3-3.4 1.3h-3.2v-15h-6.1q-2 0-3.2 0.3-1.1 0.4-1.6 1.1-0.5 0.5-0.6 1.3-0.1 0.8-0.1 1.7v6.7q0 2.3 0.9 3.3 0.8 1 2.9 1h11q2.6 0 3.7-1.4 1.2-1.4 1.2-4.6v-11.2q0-1.6-0.5-3.1-0.4-1.6-1.8-2.7-1.4-1.2-4.2-1.8-2.7-0.8-7.3-0.8-4.6 0-7.4 0.8-2.7 0.6-4.1 1.8-1.4 1.1-1.9 2.7-0.4 1.5-0.4 3.1v17.6q0 1.6 0.4 3.2 0.5 1.5 1.9 2.6 1.4 1.2 4.1 1.9 2.8 0.7 7.4 0.7zm5.2-9.2h-7.3q-1.9 0-2.6-0.9-0.8-0.9-0.8-3v-6.7q0-0.8 0.1-1.5 0.1-0.8 0.6-1.3 0.5-0.5 1.5-0.9 1.1-0.3 2.9-0.3h5.6zm-6-2.8h2.8v-9.3h-2.4q-1.2 0-1.5 0.5-0.3 0.5-0.3 1v6.3q0 0.7 0.3 1.1 0.3 0.4 1.1 0.4z"/>
	<path id="Conect@r Sistema de informação" class="s2" aria-label="Conect@r
Sistema de informação"  d="m98.2 64h-2.5q-0.2 0-0.2-0.1-0.1 0-0.1-0.2v-0.9q0-0.2 0.1-0.2 0-0.1 0.2-0.1h2.1q0.1 0 0.2-0.1 0 0 0-0.1 0-0.2 0-0.2-0.1-0.1-0.2-0.1l-1.2-0.2q-0.5-0.1-0.9-0.4-0.3-0.2-0.3-0.9v-0.9q0-0.6 0.4-1 0.5-0.4 1.2-0.4h2.3q0.1 0 0.2 0.1 0.1 0.1 0.1 0.2v1q0 0.1-0.1 0.2-0.1 0.1-0.2 0.1h-1.9q-0.1 0-0.1 0-0.1 0.1-0.1 0.2 0 0.1 0.1 0.2 0 0.1 0.1 0.1l1.2 0.1q0.6 0.1 0.9 0.4 0.4 0.3 0.4 1v0.8q0 0.7-0.5 1-0.4 0.4-1.2 0.4zm0.7-5h-1.8q-0.4 0-0.6 0.2-0.2 0.2-0.2 0.5v0.6q0 0.4 0.1 0.5 0.1 0.1 0.3 0.2l1.7 0.3q0.2 0.1 0.4 0.2 0.1 0.1 0.1 0.5v0.5q0 0.3-0.2 0.5-0.2 0.2-0.6 0.2h-2v0.1h2q0.4 0 0.7-0.2 0.2-0.3 0.2-0.6v-0.5q0-0.4-0.2-0.6-0.1-0.1-0.4-0.2l-1.6-0.3q-0.2-0.1-0.3-0.2-0.2-0.1-0.2-0.4v-0.6q0-0.3 0.2-0.5 0.2-0.2 0.6-0.2zm5.4 5h-3.4q-0.1 0-0.2-0.1-0.1 0-0.1-0.2v-0.9q0-0.2 0.1-0.3 0.1 0 0.2 0h0.8v-2.7h-0.8q-0.1 0-0.2-0.1-0.1-0.1-0.1-0.2v-1q0-0.1 0.1-0.2 0.1-0.1 0.2-0.1h3.4q0.2 0 0.2 0.1 0.1 0.1 0.1 0.2v1q0 0.1-0.1 0.2 0 0.1-0.2 0.1h-0.7v2.7h0.7q0.2 0 0.2 0 0.1 0.1 0.1 0.3v0.9q0 0.2-0.1 0.2 0 0.1-0.2 0.1zm-2.9-0.7h2.5v-0.1h-1.2v-4.2h1.2-2.5 1.2v4.2h-1.2zm6.9 0.7h-2.6q-0.1 0-0.2 0 0-0.1 0-0.3v-0.9q0-0.2 0-0.2 0.1-0.1 0.2-0.1h2.2q0.1 0 0.1-0.1 0.1 0 0.1-0.1 0-0.2-0.1-0.2 0-0.1-0.1-0.1l-1.2-0.2q-0.6 0-0.9-0.3-0.3-0.3-0.3-1v-0.8q0-0.7 0.4-1.1 0.4-0.3 1.2-0.3h2.3q0.1 0 0.2 0 0 0.1 0 0.2v1q0 0.2 0 0.2-0.1 0.1-0.2 0.1h-1.9q-0.1 0-0.2 0.1 0 0 0 0.1 0 0.1 0 0.2 0.1 0.1 0.2 0.1l1.2 0.1q0.5 0.1 0.9 0.4 0.3 0.3 0.3 1v0.8q0 0.7-0.4 1.1-0.5 0.3-1.2 0.3zm0.6-4.9v-0.1h-1.8q-0.3 0-0.5 0.2-0.3 0.2-0.3 0.5v0.7q0 0.3 0.2 0.4 0.1 0.1 0.3 0.2l1.7 0.3q0.2 0.1 0.3 0.2 0.2 0.2 0.2 0.5v0.5q0 0.3-0.2 0.5-0.3 0.2-0.6 0.2h-2v0.1h2q0.4 0 0.6-0.2 0.3-0.3 0.3-0.6v-0.5q0-0.4-0.2-0.5-0.2-0.2-0.4-0.3l-1.7-0.3q-0.2 0-0.3-0.1-0.1-0.2-0.1-0.4v-0.7q0-0.3 0.2-0.5 0.2-0.1 0.5-0.1zm4.6 4.9h-1.3q-0.2 0-0.3 0 0-0.1 0-0.3v-3.9h-1.2q-0.1 0-0.2-0.1-0.1 0-0.1-0.2v-1q0-0.1 0.1-0.2 0.1 0 0.2 0h4.2q0.2 0 0.2 0 0.1 0.1 0.1 0.2v1q0 0.2-0.1 0.2 0 0.1-0.2 0.1h-1.1v3.9q0 0.2-0.1 0.3-0.1 0-0.2 0zm-0.7-4.9v4.2h0.1v-4.2h1.6v-0.1h-3.4v0.1zm7.3 4.9h-3.8q-0.1 0-0.2 0 0-0.1 0-0.3v-5.2q0-0.1 0-0.2 0.1 0 0.2 0h3.8q0.1 0 0.2 0 0 0.1 0 0.2v1q0 0.1 0 0.2-0.1 0.1-0.2 0.1h-2.3v0.6h1.6q0.2 0 0.2 0.1 0.1 0 0.1 0.2v0.8q0 0.2-0.1 0.3 0 0-0.2 0h-1.6v0.7h2.3q0.1 0 0.2 0.1 0 0 0 0.2v0.9q0 0.2 0 0.3-0.1 0-0.2 0zm-0.5-0.7v-0.1h-2.6v-2.1h2-2v-2h2.6v-0.1h-2.7v4.3zm4.5-2.4q-0.1 0-0.2 0-0.1-0.1-0.2-0.3l-1-1.5q0-0.1-0.1-0.1-0.1 0-0.1 0h-0.2q-0.1 0-0.1 0-0.1 0.1-0.1 0.2v4.1h0.1v-4.1q0 0 0-0.1 0.1 0 0.1 0h0.2q0 0 0.1 0 0 0 0.1 0.1l0.9 1.4q0.2 0.3 0.2 0.3 0.1 0.1 0.3 0.1 0.2 0 0.3-0.1 0 0 0.2-0.3l1-1.4q0-0.1 0-0.1 0.1 0 0.1 0h0.2q0 0 0.1 0 0 0.1 0 0.1v4.1h0.1v-4.1q0-0.1-0.1-0.2 0 0-0.1 0h-0.2q0 0-0.1 0-0.1 0-0.1 0.1l-1 1.5q-0.1 0.2-0.2 0.3-0.1 0-0.2 0zm-1.3 3.1h-1.2q-0.2 0-0.2 0-0.1-0.1-0.1-0.3v-5.2q0-0.1 0.1-0.2 0 0 0.2 0h1.3q0.1 0 0.2 0 0.1 0.1 0.1 0.2l0.8 1.3q0 0.1 0 0.1 0 0 0.1 0h0.1q0 0 0 0 0.1 0 0.1-0.1l0.7-1.3q0.1-0.1 0.2-0.2 0.1 0 0.2 0h1.3q0.1 0 0.2 0 0.1 0.1 0.1 0.2v5.2q0 0.2-0.1 0.3-0.1 0-0.2 0h-1.2q-0.2 0-0.3 0 0-0.1 0-0.3v-2.8l-0.5 0.9q-0.1 0.1-0.2 0.2-0.1 0-0.2 0h-0.3q-0.2 0-0.3 0-0.1-0.1-0.2-0.2l-0.4-0.9v2.8q0 0.2-0.1 0.3-0.1 0-0.2 0zm6.1-2.2v-0.2q0-0.2 0-0.4 0.1-0.2 0.1-0.3l0.5-1.4q0.1-0.2 0.2-0.3 0.1-0.1 0.3-0.1h0.8q0.2 0 0.3 0.1 0.1 0.1 0.2 0.3l0.6 1.4q0 0.1 0.1 0.3 0 0.2 0 0.4v0.2zm1.3-1.9l-0.4 1.3h1.3l-0.4-1.3q0 0-0.1-0.1 0 0-0.1 0h-0.2q0 0 0 0-0.1 0.1-0.1 0.1zm1.8 2v1.4h0.1v-1.7q0-0.2 0-0.4-0.1-0.2-0.1-0.4l-0.6-1.3q-0.1-0.2-0.2-0.4-0.1-0.1-0.4-0.1h-0.7q-0.3 0-0.4 0.1-0.1 0.2-0.2 0.4l-0.5 1.3q-0.1 0.2-0.1 0.4-0.1 0.2-0.1 0.4v1.7h0.1v-1.4zm-2.3 0.7v1.1q0 0.2-0.1 0.3 0 0-0.2 0h-1.2q-0.1 0-0.2 0 0-0.1 0-0.3v-2.1q0-0.2 0-0.5 0.1-0.3 0.3-0.8l0.7-1.8q0-0.1 0.1-0.2 0.1 0 0.3 0h2.1q0.2 0 0.3 0 0.1 0.1 0.1 0.2l0.7 1.8q0.2 0.5 0.3 0.8 0 0.3 0 0.5v2.1q0 0.2 0 0.3-0.1 0-0.3 0h-1.2q-0.1 0-0.2 0-0.1-0.1-0.1-0.3v-1.1zm9 1.4h-2.7q-0.2 0-0.2 0-0.1-0.1-0.1-0.3v-5.2q0-0.1 0.1-0.2 0 0 0.2 0h2.7q1 0 1.5 0.4 0.4 0.4 0.4 1.2v2.5q0 0.8-0.4 1.2-0.5 0.4-1.5 0.4zm-2.1-5v4.3h1.9q0.4 0 0.7-0.1 0.2-0.1 0.4-0.2 0.1-0.2 0.1-0.4 0.1-0.2 0.1-0.4v-2.1q0-0.2-0.1-0.4 0-0.2-0.1-0.4-0.2-0.1-0.4-0.2-0.3-0.1-0.7-0.1zm0.1 0.1h1.8q0.4 0 0.6 0 0.3 0.1 0.4 0.3 0.1 0.1 0.2 0.3 0 0.2 0 0.4v2.1q0 0.2 0 0.4 0 0.2-0.2 0.3-0.1 0.2-0.3 0.2-0.3 0.1-0.7 0.1h-1.8zm1.8 0.7h-1v2.8h1q0.2 0 0.3-0.1 0.1-0.1 0.1-0.3v-2q0-0.2-0.1-0.3-0.1-0.1-0.3-0.1zm7.2 4.3h-3.7q-0.2 0-0.2-0.1-0.1-0.1-0.1-0.2v-5.2q0-0.1 0.1-0.2 0-0.1 0.2-0.1h3.7q0.2 0 0.2 0.1 0.1 0.1 0.1 0.2v0.9q0 0.2-0.1 0.3 0 0-0.2 0h-2.2v0.6h1.6q0.1 0 0.2 0.1 0 0.1 0 0.2v0.9q0 0.1 0 0.2-0.1 0.1-0.2 0.1h-1.6v0.7h2.2q0.2 0 0.2 0 0.1 0.1 0.1 0.3v0.9q0 0.1-0.1 0.2 0 0.1-0.2 0.1zm-0.4-0.7v-0.1h-2.6v-2.1h1.9v-0.1h-1.9v-2h2.6v-0.1h-2.7v4.4zm7 0.7h-3.4q-0.2 0-0.2-0.1-0.1-0.1-0.1-0.2v-1q0-0.1 0.1-0.2 0 0 0.2 0h0.8v-2.7h-0.8q-0.2 0-0.2-0.1-0.1-0.1-0.1-0.2v-1q0-0.1 0.1-0.2 0-0.1 0.2-0.1h3.4q0.2 0 0.2 0.1 0.1 0.1 0.1 0.2v1q0 0.1-0.1 0.2 0 0.1-0.2 0.1h-0.8v2.7h0.8q0.2 0 0.2 0 0.1 0.1 0.1 0.2v1q0 0.1-0.1 0.2 0 0.1-0.2 0.1zm-3-0.7h2.6v-0.1h-1.3v-4.2h1.3v-0.1h-2.6v0.1h1.3v4.2h-1.3zm8.3-1l-3-3.3q0 0 0 0-0.1 0-0.1 0 0 0-0.1 0 0 0 0 0v4.3h0.1v-4.2q0 0 0-0.1 0 0 0 0 0 0 0 0 0 0.1 0.1 0.1l3 3.4v0.8h0.1v-4.3h-0.1zm-2.5 1.6h-1.2q-0.2 0-0.3 0 0-0.1 0-0.3v-5.1q0-0.2 0-0.3 0.1 0 0.3 0h0.8q0.1 0 0.3 0 0.1 0.1 0.2 0.2l1.5 1.8v-1.7q0-0.2 0.1-0.3 0.1 0 0.2 0h1.2q0.2 0 0.2 0 0.1 0.1 0.1 0.3v5.1q0 0.2-0.1 0.3 0 0-0.2 0h-1.2q-0.1 0-0.2 0-0.1-0.1-0.1-0.3v-0.9l-1.3-1.7v2.6q0 0.2-0.1 0.3-0.1 0-0.2 0zm6 0h-1.2q-0.2 0-0.2 0-0.1-0.1-0.1-0.3v-5.1q0-0.2 0.1-0.3 0 0 0.2 0h3.6q0.1 0 0.2 0 0 0.1 0 0.3v0.9q0 0.2 0 0.2-0.1 0.1-0.2 0.1h-2.1v0.8h1.4q0.2 0 0.2 0.1 0.1 0.1 0.1 0.2v1q0 0.1-0.1 0.2 0 0.1-0.2 0.1h-1.4v1.5q0 0.2-0.1 0.3 0 0-0.2 0zm-0.6-5v4.3h0.1v-1.9h1.8-1.8v-2.3h2.4v-0.1zm8.9 0.8v2.7q0 0.4-0.1 0.7-0.1 0.3-0.4 0.5-0.2 0.2-0.7 0.3-0.5 0.1-1.2 0.1-0.8 0-1.3-0.1-0.5-0.1-0.7-0.3-0.3-0.2-0.4-0.5-0.1-0.3-0.1-0.7v-2.7q0-0.4 0.1-0.7 0.1-0.3 0.4-0.5 0.2-0.2 0.7-0.3 0.5-0.2 1.3-0.2 0.7 0 1.2 0.2 0.5 0.1 0.7 0.3 0.3 0.2 0.4 0.5 0.1 0.3 0.1 0.7zm-0.8 2.5v-2.3q0-0.5-0.4-0.8-0.3-0.3-1.3-0.3-0.9 0-1.2 0.3-0.4 0.3-0.4 0.8v2.3q0 0.5 0.4 0.8 0.3 0.3 1.2 0.3 1 0 1.3-0.3 0.4-0.3 0.4-0.8zm-3.2 0v-2.3q0-0.5 0.3-0.8 0.4-0.2 1.2-0.2 0.9 0 1.3 0.2 0.3 0.3 0.3 0.8v2.3q0 0.5-0.3 0.8-0.4 0.2-1.3 0.2-0.8 0-1.2-0.2-0.3-0.3-0.3-0.8zm0.9-2.2v2.1q0 0.2 0.1 0.3 0.1 0.1 0.6 0.1 0.4 0 0.5-0.1 0.1-0.1 0.1-0.3v-2.1q0-0.2-0.1-0.3-0.1-0.1-0.5-0.1-0.5 0-0.6 0.1-0.1 0.1-0.1 0.3zm5.1-1h1.7q0.5 0 0.7 0.2 0.2 0.2 0.2 0.6v0.6q0 0.4-0.2 0.6-0.2 0.3-0.7 0.3h-1.7zm1.5 0.6h-0.6v1h0.6q0.2 0 0.2-0.1 0.1-0.1 0.1-0.2v-0.3q0-0.2-0.1-0.3 0-0.1-0.2-0.1zm-1.6 3.6h0.1v-1.8h2.3q0.4 0 0.6 0.2 0.2 0.2 0.2 0.5v1.1h0.1v-1.1q0-0.4-0.2-0.6-0.3-0.2-0.7-0.2h-0.1q0.3-0.1 0.4-0.3 0.1-0.3 0.1-0.6v-0.6q0-0.4-0.3-0.6-0.2-0.3-0.7-0.3h-1.8zm0.7 0.7h-1.3q-0.1 0-0.2 0 0-0.1 0-0.3v-5.2q0-0.1 0-0.2 0.1 0 0.2 0h2.7q0.9 0 1.2 0.3 0.4 0.4 0.4 1v0.4q0 0.3-0.1 0.5-0.1 0.3-0.4 0.4 0.5 0 0.7 0.3 0.3 0.3 0.3 0.8v1.7q0 0.2-0.1 0.3 0 0-0.2 0h-1.2q-0.2 0-0.3 0 0-0.1 0-0.3v-1.2q0-0.2-0.1-0.3-0.1 0-0.2 0h-1.1v1.5q0 0.2-0.1 0.3-0.1 0-0.2 0zm7.2-3.1q-0.1 0-0.2 0-0.1-0.1-0.2-0.3l-1-1.5q0-0.1-0.1-0.1 0 0-0.1 0h-0.1q-0.2 0-0.2 0-0.1 0.1-0.1 0.2v4.1h0.1v-4.1q0 0 0-0.1 0.1 0 0.2 0h0.1q0 0 0.1 0 0 0 0.1 0.1l0.9 1.4q0.2 0.3 0.3 0.3 0 0.1 0.2 0.1 0.2 0 0.3-0.1 0 0 0.2-0.3l1-1.4q0-0.1 0-0.1 0.1 0 0.1 0h0.2q0 0 0.1 0 0 0.1 0 0.1v4.1h0.1v-4.1q0-0.1-0.1-0.2 0 0-0.1 0h-0.2q0 0-0.1 0-0.1 0-0.1 0.1l-1 1.5q-0.1 0.2-0.2 0.3 0 0-0.2 0zm-1.3 3.1h-1.2q-0.2 0-0.2 0-0.1-0.1-0.1-0.3v-5.2q0-0.1 0.1-0.2 0 0 0.2 0h1.3q0.1 0 0.2 0 0.1 0.1 0.1 0.2l0.8 1.3q0 0.1 0 0.1 0.1 0 0.1 0h0.1q0 0 0 0 0.1 0 0.1-0.1l0.7-1.3q0.1-0.1 0.2-0.2 0.1 0 0.2 0h1.3q0.1 0 0.2 0 0.1 0.1 0.1 0.2v5.2q0 0.2-0.1 0.3-0.1 0-0.2 0h-1.2q-0.2 0-0.3 0 0-0.1 0-0.3v-2.8l-0.5 0.9q-0.1 0.1-0.2 0.2-0.1 0-0.2 0h-0.3q-0.2 0-0.3 0-0.1-0.1-0.2-0.2l-0.4-0.9v2.8q0 0.2-0.1 0.3-0.1 0-0.2 0zm6.1-2.2v-0.2q0-0.2 0-0.4 0.1-0.2 0.1-0.4l0.5-1.3q0.1-0.2 0.2-0.3 0.1-0.1 0.3-0.1h0.8q0.3 0 0.4 0.1 0 0.1 0.1 0.3l0.6 1.3q0 0.2 0.1 0.4 0 0.2 0 0.4v0.2zm1.3-1.9l-0.4 1.3h1.3l-0.4-1.3q0 0-0.1-0.1 0 0-0.1 0h-0.2q0 0 0 0-0.1 0.1-0.1 0.1zm1.8 2v1.4h0.1v-1.7q0-0.2 0-0.4-0.1-0.2-0.1-0.4l-0.6-1.3q-0.1-0.2-0.2-0.4-0.1-0.1-0.3-0.1h-0.8q-0.3 0-0.4 0.1-0.1 0.2-0.2 0.4l-0.5 1.3q-0.1 0.2-0.1 0.4-0.1 0.2-0.1 0.4v1.7h0.1v-1.4zm-2.3 0.7v1.1q0 0.2-0.1 0.3 0 0-0.2 0h-1.1q-0.2 0-0.3 0 0-0.1 0-0.3v-2.1q0-0.2 0-0.5 0.1-0.3 0.3-0.8l0.7-1.8q0-0.1 0.1-0.2 0.1 0 0.3 0h2.1q0.2 0 0.3 0 0.1 0.1 0.1 0.2l0.7 1.8q0.2 0.5 0.3 0.8 0 0.3 0 0.5v2.1q0 0.2 0 0.3-0.1 0-0.2 0h-1.3q-0.1 0-0.2 0-0.1-0.1-0.1-0.3v-1.1zm7.4 1.4l-0.2 0.8q-0.1 0.1-0.2 0.2 0 0-0.2 0h-1q-0.2 0-0.3-0.1 0-0.1 0.1-0.2l0.2-0.7q-0.8 0-1.2-0.4-0.4-0.4-0.4-1.2v-2.5q0-0.8 0.4-1.2 0.5-0.4 1.5-0.4h2q0.1 0 0.2 0 0.1 0.1 0.1 0.2v1q0 0.2-0.1 0.2-0.1 0.1-0.2 0.1h-1.6q-0.3 0-0.4 0.1-0.1 0.1-0.1 0.3v1.9q0 0.2 0.1 0.3 0.1 0.1 0.4 0.1h1.6q0.1 0 0.2 0.1 0.1 0 0.1 0.2v0.9q0 0.2-0.1 0.3-0.1 0-0.2 0zm-0.6-0.7l-0.4 1h0.1l0.4-1h0.7v-0.1h-1.4q-0.7 0-0.9-0.2-0.3-0.2-0.3-0.7v-2.3q0-0.5 0.3-0.7 0.2-0.2 0.9-0.2h1.4v-0.1h-1.4q-0.7 0-1 0.2-0.2 0.3-0.2 0.8v2.3q0 0.5 0.2 0.8 0.3 0.2 1 0.2zm3.3-1.5v-0.2q0-0.2 0-0.4 0-0.2 0.1-0.4l0.5-1.3q0.1-0.2 0.2-0.3 0.1-0.1 0.3-0.1h0.8q0.2 0 0.3 0.1 0.1 0.1 0.2 0.3l0.6 1.3q0 0.2 0 0.4 0.1 0.2 0.1 0.4v0.2zm1.3-1.9l-0.4 1.3h1.2l-0.3-1.3q-0.1 0-0.1-0.1 0 0-0.1 0h-0.2q0 0-0.1 0 0 0.1 0 0.1zm1.8 2v1.4h0.1v-1.7q0-0.2-0.1-0.4 0-0.2-0.1-0.4l-0.5-1.3q-0.1-0.2-0.2-0.4-0.1-0.1-0.4-0.1h-0.8q-0.2 0-0.3 0.1-0.2 0.2-0.2 0.4l-0.6 1.3q0 0.2-0.1 0.4 0 0.2 0 0.4v1.7h0.1v-1.4zm-2.3 0.7v1.1q0 0.2-0.1 0.3 0 0-0.2 0h-1.2q-0.1 0-0.2 0-0.1-0.1-0.1-0.3v-2.1q0-0.2 0.1-0.5 0.1-0.3 0.2-0.8l0.7-1.8q0.1-0.1 0.2-0.2 0.1 0 0.3 0h2.1q0.2 0 0.3 0 0.1 0.1 0.1 0.2l0.7 1.8q0.2 0.5 0.2 0.8 0.1 0.3 0.1 0.5v2.1q0 0.2-0.1 0.3 0 0-0.2 0h-1.2q-0.1 0-0.2 0-0.1-0.1-0.1-0.3v-1.1zm0.9-4.7h-0.2-0.2q-0.2-0.1-0.4-0.1-0.1 0-0.2 0-0.2 0-0.3 0.1-0.1 0-0.3 0-0.1 0.1-0.2 0 0 0 0-0.2v-0.8q0-0.1 0-0.2 0.1 0 0.2-0.1 0.2-0.1 0.4-0.1 0.1 0 0.2 0 0.1 0 0.3 0 0.2 0 0.4 0.1h0.1 0.2q0.3 0 0.4 0.1 0.2 0 0.3 0 0.1 0 0.2-0.1 0.1 0 0.3-0.1 0.2 0 0.2 0 0.1 0.1 0.1 0.2v0.9q0 0.1-0.1 0.2 0 0-0.2 0.1-0.2 0-0.3 0.1-0.1 0-0.3 0-0.1 0-0.2 0-0.2 0-0.4-0.1zm0.8-0.5v-0.1q-0.2 0-0.4 0-0.1 0-0.4-0.1h-0.2-0.2q-0.3-0.1-0.4-0.1-0.2 0-0.3 0v0.1q0.1 0 0.3 0 0.1 0 0.4 0.1h0.2 0.2q0.3 0.1 0.4 0.1 0.2 0 0.4 0zm7.4 2.4v2.7q0 0.4-0.1 0.7-0.1 0.3-0.4 0.5-0.3 0.2-0.8 0.3-0.4 0.1-1.2 0.1-0.7 0-1.2-0.1-0.5-0.1-0.8-0.3-0.3-0.2-0.4-0.5-0.1-0.3-0.1-0.7v-2.7q0-0.4 0.1-0.7 0.1-0.3 0.4-0.5 0.3-0.2 0.8-0.3 0.5-0.2 1.2-0.2 0.8 0 1.2 0.2 0.5 0.1 0.8 0.3 0.3 0.2 0.4 0.5 0.1 0.3 0.1 0.7zm-0.9 2.5v-2.3q0-0.5-0.3-0.8-0.4-0.3-1.3-0.3-0.9 0-1.3 0.3-0.3 0.3-0.3 0.8v2.3q0 0.5 0.3 0.8 0.4 0.3 1.3 0.3 0.9 0 1.3-0.3 0.3-0.3 0.3-0.8zm-3.1 0v-2.3q0-0.5 0.3-0.8 0.3-0.2 1.2-0.2 0.9 0 1.2 0.2 0.3 0.3 0.3 0.8v2.3q0 0.5-0.3 0.7-0.3 0.3-1.2 0.3-0.9 0-1.2-0.3-0.3-0.2-0.3-0.7zm0.8-2.2v2.1q0 0.2 0.2 0.3 0.1 0.1 0.5 0.1 0.4 0 0.6-0.1 0.1-0.1 0.1-0.3v-2.1q0-0.2-0.1-0.3-0.2-0.1-0.6-0.1-0.4 0-0.5 0.1-0.2 0.1-0.2 0.3z"/>
</svg>